<svg width="112" height="94" viewBox="0 0 112 94" fill="none" xmlns="http://www.w3.org/2000/svg">
<path fill-rule="evenodd" clip-rule="evenodd" d="M15.4579 75.428L15.4551 75.4227C12.2415 69.267 10.7559 59.7913 10.7559 47.2861C10.7559 34.742 12.2408 25.2455 15.4538 19.0892C17.0824 15.9476 19.2351 13.4932 21.9479 11.834C24.6625 10.1737 27.8186 9.38281 31.3374 9.38281C34.8719 9.38281 38.0371 10.166 40.7528 11.8148C43.4669 13.4627 45.6114 15.902 47.2208 19.0258C50.4361 25.1447 51.9189 34.6661 51.9189 47.2861C51.9189 59.8699 50.4347 69.3718 47.2175 75.4899C45.6046 78.5761 43.4563 80.9827 40.7416 82.6067C38.0278 84.2301 34.8667 85.0005 31.3374 85.0005C27.8238 85.0005 24.6719 84.2225 21.9591 82.5876C19.246 80.9525 17.0899 78.5311 15.4579 75.428ZM45.4468 74.5601C48.4282 68.8911 49.9189 59.7998 49.9189 47.2861C49.9189 34.7305 48.4282 25.6182 45.4468 19.9492C42.5073 14.2383 37.8042 11.3828 31.3374 11.3828C24.9126 11.3828 20.2095 14.2593 17.228 20.0122C14.2466 25.7231 12.7559 34.8145 12.7559 47.2861C12.7559 59.7158 14.2466 68.7861 17.228 74.4971C20.2095 80.166 24.9126 83.0005 31.3374 83.0005C37.8042 83.0005 42.5073 80.187 45.4468 74.5601ZM52.8585 13.7602L52.8557 13.7561C47.9656 6.45967 40.8874 2.80078 31.3374 2.80078C21.8331 2.80078 14.7986 6.45633 9.94915 13.7499C5.01355 21.1731 2.41016 32.2619 2.41015 47.2861C2.41015 62.2682 5.01353 73.3127 9.94642 80.6923C14.7939 87.9441 21.8284 91.5825 31.3374 91.5825C40.9372 91.5825 48.0105 87.9387 52.8544 80.6923L52.8585 80.6861C57.8299 73.3078 60.4536 62.2661 60.4536 47.2861C60.4536 32.2195 57.829 21.137 52.8585 13.7602ZM54.5171 12.6426C49.2261 4.74805 41.4995 0.800781 31.3374 0.800781C21.2173 0.800781 13.5327 4.74805 8.28369 12.6426C3.03467 20.5371 0.410155 32.085 0.410155 47.2861C0.410154 62.4453 3.03467 73.9512 8.28369 81.8037C13.5327 89.6562 21.2173 93.5825 31.3374 93.5825C41.5415 93.5825 49.2681 89.6562 54.5171 81.8037C59.8081 73.9512 62.4536 62.4453 62.4536 47.2861C62.4536 32.043 59.8081 20.4951 54.5171 12.6426ZM99.8057 27.2559L99.8057 91H111.584L111.584 0.800781L102.766 0.800781C102.094 6.72168 99.8477 11.0679 96.0264 13.8394C92.2051 16.6108 86.5151 18.0386 78.9565 18.1226L78.9565 27.2559H99.8057ZM80.9565 25.2559L101.806 25.2559L101.806 89H109.584L109.584 2.80078L104.5 2.80078C103.551 8.27467 101.17 12.5792 97.2006 15.4584C93.2699 18.3092 87.7786 19.7714 80.9565 20.069L80.9565 25.2559Z" fill="black"/>
</svg>
