<svg width="133" height="94" viewBox="0 0 133 94" fill="none" xmlns="http://www.w3.org/2000/svg">
<path fill-rule="evenodd" clip-rule="evenodd" d="M15.456 75.6036L15.4531 75.5982C12.2395 69.4281 10.7539 59.9301 10.7539 47.3955C10.7539 34.8218 12.2388 25.303 15.4518 19.1322C17.0804 15.9833 19.2331 13.523 21.946 11.8599C24.6606 10.1958 27.8166 9.403 31.3354 9.403C34.8699 9.403 38.0352 10.1881 40.7508 11.8407C43.4649 13.4925 45.6095 15.9375 47.2189 19.0686C50.4341 25.202 51.917 34.7457 51.917 47.3955C51.917 60.0089 50.4328 69.5331 47.2155 75.6656C45.6026 78.759 43.4543 81.1714 40.7396 82.7992C38.0258 84.4264 34.8647 85.1986 31.3354 85.1986C27.8219 85.1986 24.6699 84.4188 21.9571 82.78C19.244 81.141 17.0879 78.7139 15.456 75.6036ZM45.4448 74.7336C48.4263 69.0513 49.917 59.9386 49.917 47.3955C49.917 34.8103 48.4263 25.6765 45.4448 19.9943C42.5054 14.2699 37.8022 11.4077 31.3354 11.4077C24.9106 11.4077 20.2075 14.2909 17.2261 20.0574C14.2446 25.7818 12.7539 34.8945 12.7539 47.3955C12.7539 59.8544 14.2446 68.9461 17.2261 74.6704C20.2075 80.3527 24.9106 83.1939 31.3354 83.1939C37.8022 83.1939 42.5054 80.3738 45.4448 74.7336ZM52.8565 13.7906L52.8538 13.7865C47.9636 6.47298 40.8855 2.80549 31.3354 2.80549C21.8311 2.80549 14.7967 6.46964 9.9472 13.7804C5.0116 21.221 2.4082 32.3359 2.4082 47.3955C2.4082 62.4128 5.01158 73.4832 9.94447 80.8802C14.7919 88.1491 21.8265 91.7961 31.3354 91.7961C40.9353 91.7961 48.0085 88.1437 52.8524 80.8802L52.8565 80.8741C57.828 73.4784 60.4517 62.4107 60.4517 47.3955C60.4517 32.2934 57.827 21.1849 52.8565 13.7906ZM54.5151 12.6704C49.2241 4.75733 41.4976 0.800781 31.3354 0.800781C21.2153 0.800781 13.5308 4.75733 8.28174 12.6704C3.03271 20.5835 0.408202 32.1586 0.408202 47.3955C0.408201 62.5903 3.03271 74.1233 8.28174 81.9943C13.5308 89.8653 21.2153 93.8008 31.3354 93.8008C41.5395 93.8008 49.2661 89.8653 54.5151 81.9943C59.8061 74.1233 62.4517 62.5903 62.4517 47.3955C62.4517 32.1165 59.8062 20.5414 54.5151 12.6704ZM106.795 46.701L99.1738 50.868C88.6758 56.6345 81.3062 62.5061 77.0649 68.4831C73.0676 74.1326 70.9729 81.0407 70.7807 89.2075C70.771 89.62 70.7661 90.0357 70.7661 90.4546L70.7661 93.2169H132.18L132.18 80.6875H83.6787C83.8691 80.0082 84.0947 78.7526 84.3555 78.0955C85.5328 75.1287 87.4278 72.3875 90.0405 69.8721C93.2739 66.7573 98.334 63.3901 105.221 59.7702L112.842 55.9189C119.435 52.4675 124.306 48.4478 127.456 43.8598C130.605 39.2298 132.18 33.8001 132.18 27.5706C132.18 19.5734 129.471 13.1124 124.054 8.18775C118.679 3.2631 111.541 0.800781 102.638 0.800781C93.4419 0.800781 86.1562 3.57879 80.7812 9.13479C75.4861 14.6083 72.7992 22.0426 72.7205 31.4376C72.7193 31.5793 72.7187 31.7214 72.7187 31.8639L72.7187 33.4423H84.4976L84.4976 32.369C84.4976 25.887 86.0513 20.794 89.1587 17.09C92.3081 13.386 96.6333 11.534 102.134 11.534C107.551 11.534 111.876 12.9861 115.11 15.8904C118.343 18.7947 119.96 22.646 119.96 27.4444C119.96 31.5693 118.889 35.1891 116.748 38.3038C114.648 41.4186 111.331 44.2176 106.795 46.701ZM118.4 39.4337C116.067 42.8913 112.466 45.8803 107.754 48.4603L107.753 48.4609L100.135 52.626C89.7532 58.3286 82.6837 64.0235 78.6947 69.645C74.9765 74.9011 72.9725 83.8935 72.7812 91.7134H130.18L130.18 82.6922H81.0395L81.7532 79.558C82.9123 75.4219 85.2432 71.7112 88.6551 68.4263C92.0887 65.1188 97.3415 61.6481 104.292 57.9948L104.306 57.9874L111.929 54.1352C118.319 50.7882 122.895 46.9651 125.806 42.7261C128.702 38.4666 130.18 33.442 130.18 27.5706C130.18 20.0814 127.669 14.1803 122.711 9.67267L122.705 9.66745C117.776 5.15189 111.158 2.80549 102.638 2.80549C93.8715 2.80549 87.1443 5.43723 82.217 10.5304C77.3625 15.5484 74.7989 22.4391 74.7206 31.4376L82.508 31.4376C82.6518 25.0627 84.2892 19.7795 87.628 15.7998L87.6365 15.7896C91.219 11.5763 96.1346 9.52927 102.134 9.52927C107.917 9.52927 112.76 11.0876 116.445 14.3974C120.148 17.7235 121.96 22.1415 121.96 27.4444C121.96 31.9338 120.789 35.9558 118.4 39.4337Z" fill="black"/>
</svg>
