<svg width="133" height="94" viewBox="0 0 133 94" fill="none" xmlns="http://www.w3.org/2000/svg">
<path fill-rule="evenodd" clip-rule="evenodd" d="M15.456 75.6036L15.4531 75.5982C12.2395 69.4281 10.7539 59.9301 10.7539 47.3955C10.7539 34.8218 12.2388 25.303 15.4518 19.1322C17.0804 15.9833 19.2331 13.523 21.946 11.8599C24.6606 10.1958 27.8166 9.403 31.3354 9.403C34.8699 9.403 38.0352 10.1881 40.7508 11.8407C43.4649 13.4925 45.6095 15.9375 47.2189 19.0686C50.4341 25.202 51.917 34.7457 51.917 47.3955C51.917 60.0089 50.4328 69.5331 47.2155 75.6656C45.6026 78.759 43.4543 81.1714 40.7396 82.7992C38.0258 84.4264 34.8647 85.1986 31.3354 85.1986C27.8219 85.1986 24.6699 84.4188 21.9571 82.78C19.244 81.141 17.0879 78.7139 15.456 75.6036ZM45.4448 74.7336C48.4263 69.0513 49.917 59.9386 49.917 47.3955C49.917 34.8103 48.4263 25.6765 45.4448 19.9943C42.5054 14.2699 37.8022 11.4077 31.3354 11.4077C24.9106 11.4077 20.2075 14.2909 17.2261 20.0574C14.2446 25.7818 12.7539 34.8945 12.7539 47.3955C12.7539 59.8544 14.2446 68.9461 17.2261 74.6704C20.2075 80.3527 24.9106 83.1939 31.3354 83.1939C37.8022 83.1939 42.5054 80.3738 45.4448 74.7336ZM52.8565 13.7906L52.8538 13.7865C47.9636 6.47298 40.8855 2.80549 31.3354 2.80549C21.8311 2.80549 14.7967 6.46964 9.9472 13.7804C5.0116 21.221 2.4082 32.3359 2.4082 47.3955C2.4082 62.4128 5.01158 73.4832 9.94447 80.8802C14.7919 88.1491 21.8265 91.7961 31.3354 91.7961C40.9353 91.7961 48.0085 88.1437 52.8524 80.8802L52.8565 80.8741C57.828 73.4784 60.4517 62.4107 60.4517 47.3955C60.4517 32.2934 57.827 21.1849 52.8565 13.7906ZM54.5151 12.6704C49.2241 4.75733 41.4976 0.800781 31.3354 0.800781C21.2153 0.800781 13.5308 4.75733 8.28174 12.6704C3.03271 20.5835 0.408202 32.1586 0.408202 47.3955C0.408201 62.5903 3.03271 74.1233 8.28174 81.9943C13.5308 89.8653 21.2153 93.8008 31.3354 93.8008C41.5395 93.8008 49.2661 89.8653 54.5151 81.9943C59.8061 74.1233 62.4517 62.5903 62.4517 47.3955C62.4517 32.1165 59.8062 20.5414 54.5151 12.6704ZM96.2617 49.453C98.2735 49.344 99.7691 49.2896 100.749 49.2896C106.753 49.2896 111.415 50.6786 114.732 53.4566C118.049 56.2346 119.708 60.1491 119.708 65.2C119.708 70.7139 118.007 75.0493 114.606 78.2061C111.247 81.3629 106.627 82.9413 100.749 82.9413C94.7017 82.9413 90.0195 81.2156 86.7021 77.7641C83.3848 74.3127 81.6421 69.4091 81.4741 63.0533H69.7583L69.7583 63.6847C69.7583 64.1472 69.7652 64.605 69.7791 65.058C70.0404 73.5941 72.7629 80.4602 77.9468 85.6562C83.4058 91.0859 90.7334 93.8008 99.9297 93.8008C109.756 93.8008 117.587 91.2122 123.424 86.035C129.261 80.8157 132.18 73.8707 132.18 65.2C132.18 59.6861 130.941 55.0771 128.463 51.3731C126.464 48.2979 123.672 45.8893 120.088 44.1473C119.306 43.7672 118.487 43.4188 117.629 43.1022C118.468 42.739 119.261 42.339 120.007 41.902C122.546 40.4146 124.546 38.4996 126.007 36.1572C127.896 33.0846 128.841 29.3595 128.841 24.982C128.841 17.3636 126.301 11.4288 121.22 7.17756C116.181 2.92638 109.084 0.800781 99.9297 0.800781C91.3633 0.800781 84.5396 3.43147 79.4585 8.69284C74.6422 13.6801 72.1085 20.2936 71.8576 28.5333C71.8438 28.9862 71.8369 29.444 71.8369 29.9067L71.8369 30.5381L83.3008 30.5381C83.3008 24.2244 84.7495 19.4681 87.647 16.2692C90.5864 13.0282 94.9116 11.4077 100.623 11.4077C105.704 11.4077 109.609 12.6283 112.338 15.0696C115.068 17.5109 116.433 21.0044 116.433 25.5503C116.433 30.4328 115.005 33.9895 112.149 36.2203C109.294 38.4091 104.633 39.5034 98.166 39.5034H95.9614L94.3237 39.3772L94.2607 49.6053L94.7017 49.5421C95.2522 49.5092 95.7723 49.4795 96.2617 49.453ZM96.2741 47.4447C98.2405 47.3392 99.738 47.2849 100.749 47.2849C107.041 47.2849 112.219 48.7401 116.014 51.9181C119.864 55.1421 121.708 59.6645 121.708 65.2C121.708 71.1567 119.853 76.0664 115.969 79.6729C112.145 83.2638 106.987 84.946 100.749 84.946C94.3105 84.946 89.0501 83.0964 85.2618 79.155C81.8707 75.6268 80.0363 70.8594 79.5768 65.058H71.78C72.0391 73.1462 74.6105 79.4756 79.3585 84.2361C84.3708 89.2199 91.1523 91.7961 99.9297 91.7961C109.397 91.7961 116.713 89.3096 122.096 84.5365C127.458 79.7407 130.18 73.3655 130.18 65.2C130.18 59.9891 129.012 55.7926 126.802 52.4895L126.795 52.4786L126.788 52.4676C124.62 49.1337 121.382 46.6243 116.938 44.9833L112.244 43.2497L116.837 41.2618C120.207 39.8031 122.66 37.7393 124.308 35.0999C125.963 32.4057 126.841 29.0646 126.841 24.982C126.841 17.8594 124.493 12.5279 119.938 8.71658L119.932 8.71133C115.372 4.86427 108.795 2.80549 99.9297 2.80549C91.8037 2.80549 85.5347 5.28331 80.8955 10.0871C76.5037 14.6348 74.1074 20.7193 73.8585 28.5333L81.3497 28.5333C81.6329 22.8672 83.1565 18.2445 86.1662 14.9217L86.1671 14.9207C89.5932 11.1432 94.5308 9.403 100.623 9.403C106.004 9.403 110.453 10.6964 113.67 13.5738C116.924 16.4839 118.433 20.5809 118.433 25.5503C118.433 30.8216 116.876 35.0692 113.379 37.8015L113.372 37.8072L113.364 37.8128C109.976 40.4103 104.763 41.5081 98.166 41.5081H96.3114L96.2741 47.4447Z" fill="black"/>
</svg>
