<svg width="134" height="94" viewBox="0 0 134 94" fill="none" xmlns="http://www.w3.org/2000/svg">
<path fill-rule="evenodd" clip-rule="evenodd" d="M15.456 75.3616L15.4531 75.3562C12.2395 69.2061 10.7539 59.7388 10.7539 47.2446C10.7539 34.7116 12.2388 25.2235 15.4518 19.0727C17.0804 15.9339 19.2331 13.4816 21.946 11.8239C24.6606 10.1651 27.8166 9.3749 31.3354 9.3749C34.8699 9.3749 38.0352 10.1574 40.7508 11.8048C43.4649 13.4511 45.6095 15.8883 47.2189 19.0093C50.4341 25.1229 51.917 34.6358 51.917 47.2446C51.917 59.8173 50.4328 69.3107 47.2155 75.4234C45.6026 78.5068 43.4543 80.9114 40.7396 82.5339C38.0258 84.1559 34.8647 84.9256 31.3354 84.9256C27.8219 84.9256 24.6699 84.1483 21.9571 82.5148C19.244 80.8811 17.0879 78.4619 15.456 75.3616ZM45.4448 74.4944C48.4263 68.8305 49.917 59.7472 49.917 47.2446C49.917 34.7001 48.4263 25.5959 45.4448 19.9319C42.5054 14.2261 37.8022 11.3731 31.3354 11.3731C24.9106 11.3731 20.2075 14.247 17.2261 19.9949C14.2446 25.7008 12.7539 34.784 12.7539 47.2446C12.7539 59.6633 14.2446 68.7256 17.2261 74.4315C20.2075 80.0954 24.9106 82.9273 31.3354 82.9273C37.8022 82.9273 42.5054 80.1164 45.4448 74.4944ZM52.8565 13.7484L52.8538 13.7443C47.9636 6.45435 40.8855 2.7987 31.3354 2.7987C21.8311 2.7987 14.7967 6.45101 9.9472 13.7382C5.0116 21.1547 2.4082 32.2337 2.4082 47.2446C2.4082 62.2135 5.01158 73.2481 9.94447 80.6212C14.7919 87.8665 21.8265 91.5018 31.3354 91.5018C40.9353 91.5018 48.0085 87.8612 52.8524 80.6212L52.8565 80.615C57.828 73.2433 60.4517 62.2113 60.4517 47.2446C60.4517 32.1913 57.827 21.1187 52.8565 13.7484ZM54.5151 12.6318C49.2241 4.74424 41.4976 0.800472 31.3354 0.800472C21.2153 0.800472 13.5308 4.74424 8.28174 12.6318C3.03271 20.5193 0.408202 32.0569 0.408202 47.2446C0.408201 62.3904 3.03271 73.886 8.28174 81.7316C13.5308 89.5772 21.2153 93.5 31.3354 93.5C41.5395 93.5 49.2661 89.5772 54.5151 81.7316C59.8061 73.886 62.4517 62.3904 62.4517 47.2446C62.4517 32.015 59.8062 20.4774 54.5151 12.6318ZM76.9777 60.4449L111.252 12.0782L111.252 60.4449L76.9777 60.4449ZM120.842 68.7675L133.628 68.7675L133.628 58.4466H120.842L120.842 0.5L109.126 0.5L70.0103 57.4397L70.0103 68.7675H109.252L109.252 93.4176H120.842L120.842 68.7675ZM118.842 91.9189L118.842 66.7693H131.628L131.628 60.4449H118.842L118.842 2.49823L110.148 2.49823L72.0103 58.0864L72.0103 66.7693H111.252L111.252 91.9189H118.842ZM109.252 58.4466H80.8442L109.252 18.3586L109.252 58.4466Z" fill="black"/>
</svg>
