<svg width="133" height="94" viewBox="0 0 133 94" fill="none" xmlns="http://www.w3.org/2000/svg">
<path fill-rule="evenodd" clip-rule="evenodd" d="M15.456 75.6036L15.4531 75.5982C12.2395 69.4281 10.7539 59.9301 10.7539 47.3955C10.7539 34.8218 12.2388 25.303 15.4518 19.1322C17.0804 15.9833 19.2331 13.523 21.946 11.8599C24.6606 10.1958 27.8166 9.403 31.3354 9.403C34.8699 9.403 38.0352 10.1881 40.7508 11.8407C43.4649 13.4925 45.6095 15.9375 47.2189 19.0686C50.4341 25.202 51.917 34.7457 51.917 47.3955C51.917 60.0089 50.4328 69.5331 47.2155 75.6656C45.6026 78.759 43.4543 81.1714 40.7396 82.7992C38.0258 84.4264 34.8647 85.1986 31.3354 85.1986C27.8219 85.1986 24.6699 84.4188 21.9571 82.78C19.244 81.141 17.0879 78.7139 15.456 75.6036ZM45.4448 74.7336C48.4263 69.0513 49.917 59.9386 49.917 47.3955C49.917 34.8103 48.4263 25.6765 45.4448 19.9943C42.5054 14.2699 37.8022 11.4077 31.3354 11.4077C24.9106 11.4077 20.2075 14.2909 17.2261 20.0574C14.2446 25.7818 12.7539 34.8945 12.7539 47.3955C12.7539 59.8544 14.2446 68.9461 17.2261 74.6704C20.2075 80.3527 24.9106 83.1939 31.3354 83.1939C37.8022 83.1939 42.5054 80.3738 45.4448 74.7336ZM52.8565 13.7906L52.8538 13.7865C47.9636 6.47298 40.8855 2.80549 31.3354 2.80549C21.8311 2.80549 14.7967 6.46964 9.9472 13.7804C5.0116 21.221 2.4082 32.3359 2.4082 47.3955C2.4082 62.4128 5.01158 73.4832 9.94447 80.8802C14.7919 88.1491 21.8265 91.7961 31.3354 91.7961C40.9353 91.7961 48.0085 88.1437 52.8524 80.8802L52.8565 80.8741C57.828 73.4784 60.4517 62.4107 60.4517 47.3955C60.4517 32.2934 57.827 21.1849 52.8565 13.7906ZM54.5151 12.6704C49.2241 4.75733 41.4976 0.800781 31.3354 0.800781C21.2153 0.800781 13.5308 4.75733 8.28174 12.6704C3.03271 20.5835 0.408202 32.1586 0.408202 47.3955C0.408201 62.5903 3.03271 74.1233 8.28174 81.9943C13.5308 89.8653 21.2153 93.8008 31.3354 93.8008C41.5395 93.8008 49.2661 89.8653 54.5151 81.9943C59.8061 74.1233 62.4517 62.5903 62.4517 47.3955C62.4517 32.1165 59.8062 20.5414 54.5151 12.6704ZM87.9619 78.7743C84.8125 76.1226 82.8809 72.4607 82.167 67.7886H70.2622C70.3239 68.4684 70.4034 69.1367 70.5008 69.7933C71.5307 76.7386 74.5586 82.384 79.5845 86.7295C85.1274 91.4437 92.1401 93.8008 100.623 93.8008C110.155 93.8008 117.86 90.8965 123.739 85.088C129.618 79.2373 132.558 71.5768 132.558 62.1063C132.558 53.1409 129.786 45.9433 124.243 40.5136C118.7 35.0839 111.331 32.369 102.134 32.369C98.6909 32.369 95.4995 32.8741 92.5601 33.8843C90.6034 34.538 88.8 35.4029 87.1497 36.479C86.3562 36.9963 85.5981 37.5625 84.8755 38.1776L88.4658 13.9963L127.708 13.9963L127.708 1.50164L79.9624 1.50164L72.8447 50.9943H83.1748C85.3164 48.2584 87.8149 46.1959 90.6704 44.8069C93.5679 43.4179 96.7383 42.7234 100.182 42.7234C106.312 42.7234 111.163 44.5333 114.732 48.1531C118.301 51.7309 120.086 56.5924 120.086 62.7376C120.086 68.7146 118.238 73.534 114.543 77.1959C110.89 80.8578 106.061 82.6888 100.056 82.6888C95.1846 82.6888 91.1533 81.3839 87.9619 78.7743ZM115.953 78.6175C111.864 82.7138 106.496 84.6935 100.056 84.6935C94.8117 84.6935 90.3087 83.2804 86.6977 80.3277L86.6865 80.3186L86.6755 80.3093C83.5084 77.6426 81.4719 74.0979 80.5089 69.7933H72.524C73.529 76.1621 76.3258 81.2622 80.8849 85.2064C86.0066 89.5595 92.5342 91.7961 100.623 91.7961C109.716 91.7961 116.887 89.0423 122.333 83.6626C127.778 78.2425 130.558 71.1227 130.558 62.1063C130.558 53.5902 127.943 46.9411 122.845 41.9474C117.744 36.9508 110.912 34.3737 102.134 34.3737C98.8879 34.3737 95.9181 34.8495 93.2087 35.7806L93.2006 35.7834L93.1925 35.7861C90.5262 36.677 88.1918 37.985 86.17 39.7057L82.1141 43.1575L86.7414 11.9916L125.708 11.9916L125.708 3.50635L81.685 3.50635L75.1668 48.9896H82.2244C84.399 46.4088 86.9226 44.4017 89.7972 43.0033L89.8075 42.9984C92.9935 41.4711 96.4616 40.7187 100.182 40.7187C106.726 40.7187 112.13 42.6648 116.151 46.74C120.17 50.7713 122.086 56.1847 122.086 62.7376C122.086 69.1622 120.083 74.5231 115.953 78.6175Z" fill="black"/>
</svg>
