<svg width="134" height="94" viewBox="0 0 134 94" fill="none" xmlns="http://www.w3.org/2000/svg">
<path fill-rule="evenodd" clip-rule="evenodd" d="M15.456 75.6036L15.4531 75.5982C12.2395 69.4281 10.7539 59.9301 10.7539 47.3955C10.7539 34.8218 12.2388 25.303 15.4518 19.1322C17.0804 15.9833 19.2331 13.523 21.946 11.8599C24.6606 10.1958 27.8166 9.403 31.3354 9.403C34.8699 9.403 38.0352 10.1881 40.7508 11.8407C43.4649 13.4925 45.6095 15.9375 47.2189 19.0686C50.4341 25.202 51.917 34.7457 51.917 47.3955C51.917 60.0089 50.4328 69.5331 47.2155 75.6656C45.6026 78.759 43.4543 81.1714 40.7396 82.7992C38.0258 84.4264 34.8647 85.1986 31.3354 85.1986C27.8219 85.1986 24.6699 84.4188 21.9571 82.78C19.244 81.141 17.0879 78.7139 15.456 75.6036ZM45.4448 74.7336C48.4263 69.0513 49.917 59.9386 49.917 47.3955C49.917 34.8103 48.4263 25.6765 45.4448 19.9943C42.5054 14.2699 37.8022 11.4077 31.3354 11.4077C24.9106 11.4077 20.2075 14.2909 17.2261 20.0574C14.2446 25.7818 12.7539 34.8945 12.7539 47.3955C12.7539 59.8544 14.2446 68.9461 17.2261 74.6704C20.2075 80.3527 24.9106 83.1939 31.3354 83.1939C37.8022 83.1939 42.5054 80.3738 45.4448 74.7336ZM52.8565 13.7906L52.8538 13.7865C47.9636 6.47298 40.8855 2.80549 31.3354 2.80549C21.8311 2.80549 14.7967 6.46964 9.9472 13.7804C5.0116 21.221 2.4082 32.3359 2.4082 47.3955C2.4082 62.4128 5.01158 73.4832 9.94447 80.8802C14.7919 88.1491 21.8265 91.7961 31.3354 91.7961C40.9353 91.7961 48.0085 88.1437 52.8524 80.8802L52.8565 80.8741C57.828 73.4784 60.4517 62.4107 60.4517 47.3955C60.4517 32.2934 57.827 21.1849 52.8565 13.7906ZM54.5151 12.6704C49.2241 4.75733 41.4976 0.800781 31.3354 0.800781C21.2153 0.800781 13.5308 4.75733 8.28174 12.6704C3.03271 20.5835 0.408202 32.1586 0.408202 47.3955C0.408201 62.5903 3.03271 74.1233 8.28174 81.9943C13.5308 89.8653 21.2153 93.8008 31.3354 93.8008C41.5395 93.8008 49.2661 89.8653 54.5151 81.9943C59.8061 74.1233 62.4517 62.5903 62.4517 47.3955C62.4517 32.1165 59.8062 20.5414 54.5151 12.6704ZM89.9775 78.2692C86.6602 74.7336 85.0015 69.9563 85.0015 63.9372C85.0015 57.9182 86.6602 53.183 89.9775 49.7315C93.3369 46.2801 97.9561 44.5543 103.835 44.5543C109.084 44.5543 113.304 46.3011 116.496 49.7947C119.729 53.2882 121.346 57.9603 121.346 63.811C121.346 69.7458 119.708 74.5231 116.433 78.1429C113.157 81.7628 108.832 83.5727 103.457 83.5727C97.8301 83.5727 93.3369 81.8049 89.9775 78.2692ZM117.966 48.4363C114.352 44.4827 109.574 42.5496 103.835 42.5496C97.5449 42.5496 92.3625 44.4104 88.5459 48.3316L88.5372 48.3407C84.7748 52.2552 83.0015 57.5387 83.0015 63.9372C83.0015 70.3381 84.7754 75.651 88.5206 79.6427L88.5293 79.6518C92.3256 83.6473 97.3754 85.5774 103.457 85.5774C109.332 85.5774 114.218 83.5741 117.914 79.4897C121.591 75.4257 123.346 70.1315 123.346 63.811C123.346 57.5782 121.614 52.38 117.966 48.4363ZM84.1607 40.5408C84.9571 31.2504 86.9171 24.1911 90.0405 19.3629C93.5259 13.9753 98.5439 11.2814 105.095 11.2814C109.966 11.2814 113.766 12.5021 116.496 14.9433C119.225 17.3846 120.8 20.9624 121.22 25.6765L133.125 25.6765C133.078 24.9949 133.015 24.3266 132.937 23.6718C132.099 16.6852 129.453 11.2292 124.999 7.30384C120.128 2.96847 113.451 0.800781 104.969 0.800781C94.2188 0.800781 85.8833 5.19929 79.9624 13.9963C74.0415 22.7933 71.0811 35.2522 71.0811 51.3731C71.0811 65.0527 73.8525 75.5543 79.3955 82.8782C84.9805 90.1599 93.001 93.8008 103.457 93.8008C112.527 93.8008 119.855 91.0228 125.44 85.4668C131.067 79.9108 133.88 72.6501 133.88 63.6847C133.88 54.7614 131.235 47.5849 125.944 42.1552C120.695 36.6833 113.787 33.9474 105.221 33.9474C100.77 33.9474 96.7383 34.7892 93.127 36.4729C90.5126 37.7061 88.1686 39.357 86.0949 41.4257C85.3374 42.1813 84.616 42.9927 83.9307 43.8598C83.9917 42.7235 84.0684 41.6172 84.1607 40.5408ZM93.9754 38.2883C90.6996 39.834 87.8764 42.0958 85.4983 45.1047L81.5956 50.0427L81.9336 43.7521C82.5286 32.6755 84.5961 24.0942 88.3624 18.2722C92.2265 12.2992 97.8847 9.27673 105.095 9.27673C110.291 9.27673 114.624 10.5827 117.827 13.4476C120.642 15.9648 122.314 19.4367 122.987 23.6718H130.921C130.1 17.1931 127.642 12.3027 123.678 8.80931L123.671 8.8029C119.265 4.8816 113.113 2.80549 104.969 2.80549C94.8712 2.80549 87.1626 6.88303 81.6204 15.1175C76.0104 23.4526 73.0811 35.4579 73.0811 51.3731C73.0811 64.8157 75.8094 74.8199 80.9851 81.6616C86.1345 88.3722 93.5251 91.7961 103.457 91.7961C112.087 91.7961 118.878 89.1698 124.031 84.0439L124.036 84.0386C129.23 78.9106 131.88 72.1908 131.88 63.6847C131.88 55.1862 129.376 48.546 124.513 43.5559L124.508 43.5503L124.502 43.5446C119.681 38.5191 113.321 35.9521 105.221 35.9521C101.029 35.9521 97.2917 36.7431 93.9754 38.2883Z" fill="black"/>
</svg>
