<svg width="134" height="94" viewBox="0 0 134 94" fill="none" xmlns="http://www.w3.org/2000/svg">
<path fill-rule="evenodd" clip-rule="evenodd" d="M15.456 75.2685L15.4531 75.2631C12.2395 69.1207 10.7539 59.6652 10.7539 47.1868C10.7539 34.6694 12.2388 25.1932 15.4518 19.0501C17.0804 15.9153 19.2331 13.466 21.946 11.8104C24.6606 10.1537 27.8166 9.36447 31.3354 9.36447C34.8699 9.36447 38.0352 10.146 40.7508 11.7913C43.4649 13.4356 45.6095 15.8697 47.2189 18.9868C50.4341 25.0927 51.917 34.5937 51.917 47.1868C51.917 59.7437 50.4328 69.2252 47.2155 75.3303C45.6026 78.4098 43.4543 80.8113 40.7396 82.4319C38.0258 84.0518 34.8647 84.8205 31.3354 84.8205C27.8219 84.8205 24.6699 84.0442 21.9571 82.4128C19.244 80.7811 17.0879 78.3649 15.456 75.2685ZM45.4448 74.4024C48.4263 68.7456 49.917 59.6737 49.917 47.1868C49.917 34.6579 48.4263 25.5651 45.4448 19.9083C42.5054 14.2096 37.8022 11.3602 31.3354 11.3602C24.9106 11.3602 20.2075 14.2305 17.2261 19.9711C14.2446 25.6699 12.7539 34.7417 12.7539 47.1868C12.7539 59.5899 14.2446 68.6408 17.2261 74.3395C20.2075 79.9964 24.9106 82.8248 31.3354 82.8248C37.8022 82.8248 42.5054 80.0173 45.4448 74.4024ZM52.8565 13.7324L52.8538 13.7284C47.9636 6.44757 40.8855 2.79651 31.3354 2.79651C21.8311 2.79651 14.7967 6.44424 9.9472 13.7223C5.0116 21.1295 2.4082 32.1946 2.4082 47.1868C2.4082 62.1368 5.01158 73.1577 9.94447 80.5215C14.7919 87.7578 21.8265 91.3885 31.3354 91.3885C40.9353 91.3885 48.0085 87.7525 52.8524 80.5215L52.8565 80.5154C57.828 73.1529 60.4517 62.1347 60.4517 47.1868C60.4517 32.1523 57.827 21.0936 52.8565 13.7324ZM54.5151 12.6173C49.2241 4.73961 41.4976 0.800781 31.3354 0.800781C21.2153 0.800781 13.5308 4.73961 8.28174 12.6173C3.03271 20.4949 0.408202 32.0181 0.408202 47.1868C0.408201 62.3135 3.03271 73.7948 8.28174 81.6306C13.5308 89.4663 21.2153 93.3842 31.3354 93.3842C41.5395 93.3842 49.2661 89.4663 54.5151 81.6306C59.8061 73.7948 62.4517 62.3135 62.4517 47.1868C62.4517 31.9762 59.8062 20.453 54.5151 12.6173ZM96.0874 50.7066C90.3229 62.5704 86.4474 75.2721 84.4609 88.8115C84.3636 89.4747 84.2709 93.1335 84.1826 93.8008H97.3472C99.2368 79.1349 103.163 62.4393 109.126 49.7009C115.131 36.9207 123.214 25.0413 133.376 14.0629L133.376 1.49851L71.9629 1.49851L71.9629 15.1314L120.968 15.1314C120.345 15.7945 119.731 16.4597 119.124 17.1271C109.456 27.7638 101.777 38.9569 96.0874 50.7066ZM73.9629 13.1357L125.581 13.1357L122.428 16.4956C112.011 27.5943 103.838 39.2882 97.8882 51.5749L97.887 51.5773C92.2562 63.1659 88.4531 78.5678 86.4826 91.8051H95.5979C97.5931 77.5994 101.496 61.2843 107.314 48.8563L107.315 48.8537C113.307 36.1012 121.332 24.2448 131.376 13.2851L131.376 3.49423L73.9629 3.49423L73.9629 13.1357Z" fill="black"/>
</svg>
