<svg width="133" height="94" viewBox="0 0 133 94" fill="none" xmlns="http://www.w3.org/2000/svg">
<path fill-rule="evenodd" clip-rule="evenodd" d="M15.2924 75.3101L15.2896 75.3047C12.0991 69.1311 10.625 59.6299 10.625 47.0947C10.625 34.5205 12.0984 24.9984 15.2882 18.8242C16.9053 15.6732 19.0431 13.2106 21.7377 11.5458C24.4341 9.87988 27.5686 9.08656 31.0625 9.08656C34.5719 9.08656 37.7155 9.87217 40.413 11.5266C43.1088 13.18 45.2386 15.6274 46.8366 18.7606C50.0287 24.8975 51.5 34.4445 51.5 47.0947C51.5 59.7087 50.0273 69.2361 46.8332 75.3721C45.2317 78.4677 43.0982 80.8823 40.4017 82.5118C37.7062 84.1408 34.5667 84.9134 31.0625 84.9134C27.5738 84.9134 24.4434 84.1331 21.7489 82.4926C19.054 80.8519 16.9128 78.4226 15.2924 75.3101ZM45.0625 74.4328C48.0208 68.7505 49.5 59.6378 49.5 47.0947C49.5 34.5095 48.0208 25.3758 45.0625 19.6935C42.1458 13.9691 37.4792 11.1069 31.0625 11.1069C24.6875 11.1069 20.0208 13.9902 17.0625 19.7566C14.1042 25.481 12.625 34.5937 12.625 47.0947C12.625 59.5536 14.1042 68.6453 17.0625 74.3697C20.0208 80.0519 24.6875 82.8931 31.0625 82.8931C37.4792 82.8931 42.1458 80.073 45.0625 74.4328ZM52.4039 13.4986L52.4011 13.4945C47.552 6.18561 40.5338 2.52037 31.0625 2.52037C21.6366 2.52037 14.6617 6.18224 9.85296 13.4883C4.95805 20.9252 2.375 32.0365 2.375 47.0947C2.375 62.1107 4.95803 73.1775 9.85023 80.5707C14.657 87.8349 21.632 91.4796 31.0625 91.4796C40.5832 91.4796 47.5966 87.8295 52.3998 80.5707L52.4039 80.5645C57.3343 73.1726 59.9375 62.1085 59.9375 47.0947C59.9375 31.994 57.3334 20.8891 52.4039 13.4986ZM54.0625 12.3697C48.8125 4.45655 41.1458 0.5 31.0625 0.5C21.0208 0.5 13.3958 4.45655 8.1875 12.3697C2.97917 20.2828 0.374999 31.8578 0.374998 47.0947C0.374998 62.2895 2.97916 73.8225 8.1875 81.6935C13.3958 89.5645 21.0208 93.5 31.0625 93.5C41.1875 93.5 48.8542 89.5645 54.0625 81.6935C59.3125 73.8225 61.9375 62.2895 61.9375 47.0947C61.9375 31.8157 59.3125 20.2407 54.0625 12.3697ZM116.074 79.3613L116.074 79.3616C112.362 82.9673 107.357 84.6609 101.312 84.6609C95.3051 84.6609 90.3231 82.9647 86.6138 79.3616C82.891 75.7456 81.125 70.8384 81.125 64.8992C81.125 59.3023 82.8942 54.6781 86.5922 51.282L86.6017 51.2733C90.3171 47.905 95.3034 46.3371 101.312 46.3371C107.323 46.3371 112.31 47.9271 116.024 51.3369C119.802 54.7239 121.625 59.3266 121.625 64.8992C121.625 70.81 119.83 75.7112 116.074 79.3613ZM114.687 52.8401C117.979 55.7865 119.625 59.8062 119.625 64.8992C119.625 70.371 117.979 74.7064 114.687 77.9053C111.437 81.0621 106.979 82.6405 101.312 82.6405C95.6875 82.6405 91.25 81.0621 88 77.9053C84.75 74.7485 83.125 70.4131 83.125 64.8992C83.125 59.7641 84.7292 55.7234 87.9375 52.777C91.1875 49.8306 95.6458 48.3574 101.312 48.3574C106.979 48.3574 111.437 49.8517 114.687 52.8401ZM90.6989 42.6798L86.2943 44.4291C81.742 46.2372 78.4094 48.8793 76.1697 52.3107L76.1641 52.3193C73.9256 55.7111 72.75 59.9515 72.75 65.1517C72.75 73.3041 75.3264 79.6164 80.3575 84.3136C85.4011 89.0227 92.3085 91.4796 101.312 91.4796C110.316 91.4796 117.248 89.0229 122.336 84.3085L122.341 84.3034C127.451 79.6035 130.062 73.2943 130.062 65.1517C130.062 59.9515 128.887 55.7111 126.648 52.3193L126.643 52.3107C124.406 48.8838 121.056 46.2409 116.461 44.4313L112.034 42.6877L116.363 40.7083C120.035 39.0293 122.661 36.8028 124.374 34.0787C126.086 31.3556 127 27.9224 127 23.6711C127 17.3914 124.708 12.3884 120.092 8.48992C115.452 4.57081 109.256 2.52037 101.312 2.52037C93.4122 2.52037 87.2616 4.5696 82.664 8.48466L82.6566 8.49097C78.091 12.3407 75.8125 17.3393 75.8125 23.6711C75.8125 27.9257 76.7069 31.3625 78.381 34.087C80.0938 36.8074 82.719 39.031 86.3872 40.7083L90.6989 42.6798ZM76.6875 35.1619C74.7708 32.0472 73.8125 28.2169 73.8125 23.6711C73.8125 16.7682 76.3333 11.1911 81.375 6.93992C86.4167 2.64664 93.0625 0.5 101.312 0.5C109.604 0.5 116.292 2.64664 121.375 6.93992C126.458 11.2332 129 16.8103 129 23.6711C129 28.2169 128.021 32.0472 126.062 35.1619C124.508 37.6338 122.324 39.6947 119.511 41.3448C118.779 41.774 118.004 42.1753 117.187 42.5489C118.02 42.8768 118.818 43.2318 119.581 43.6141C123.326 45.4888 126.236 48.017 128.312 51.1986C130.812 54.9868 132.062 59.6378 132.062 65.1517C132.062 73.7804 129.271 80.6623 123.687 85.7974C118.146 90.9325 110.687 93.5 101.312 93.5C91.9375 93.5 84.5 90.9325 79 85.7974C73.5 80.6623 70.75 73.7804 70.75 65.1517C70.75 59.6378 72 54.9868 74.5 51.1986C76.5748 48.0198 79.4674 45.4933 83.1779 43.6191C83.9384 43.235 84.7333 42.8782 85.5625 42.5489C84.7475 42.1762 83.975 41.776 83.2448 41.348C80.4284 39.6974 78.2426 37.6354 76.6875 35.1619ZM88.715 36.5286C85.4184 33.4923 83.8125 29.4742 83.8125 24.6813C83.8125 19.875 85.3595 15.8907 88.6173 12.9987C91.8358 10.1414 96.1515 8.83401 101.312 8.83401C106.505 8.83401 110.829 10.1365 114.013 13.0036C117.267 15.8953 118.812 19.8778 118.812 24.6813C118.812 29.4742 117.207 33.4923 113.91 36.5286C110.632 39.5477 106.364 40.9705 101.312 40.9705C96.261 40.9705 91.9929 39.5477 88.715 36.5286ZM112.687 14.5163C115.437 16.9576 116.812 20.3459 116.812 24.6813C116.812 28.9745 115.396 32.426 112.562 35.0356C109.729 37.6453 105.979 38.9501 101.312 38.9501C96.6458 38.9501 92.8958 37.6453 90.0625 35.0356C87.2292 32.426 85.8125 28.9745 85.8125 24.6813C85.8125 20.3459 87.1875 16.9576 89.9375 14.5163C92.6875 12.075 96.4792 10.8544 101.312 10.8544C106.187 10.8544 109.979 12.075 112.687 14.5163Z" fill="black"/>
</svg>
