<svg width="133" height="94" viewBox="0 0 133 94" fill="none" xmlns="http://www.w3.org/2000/svg">
<path fill-rule="evenodd" clip-rule="evenodd" d="M15.2924 75.3101L15.2896 75.3047C12.0991 69.1311 10.625 59.6299 10.625 47.0947C10.625 34.5205 12.0984 24.9984 15.2882 18.8242C16.9053 15.6732 19.0431 13.2106 21.7377 11.5458C24.4341 9.87988 27.5686 9.08656 31.0625 9.08656C34.5719 9.08656 37.7155 9.87217 40.413 11.5266C43.1088 13.18 45.2386 15.6274 46.8366 18.7606C50.0287 24.8975 51.5 34.4445 51.5 47.0947C51.5 59.7087 50.0273 69.2361 46.8332 75.3721C45.2317 78.4677 43.0982 80.8823 40.4017 82.5118C37.7062 84.1408 34.5667 84.9134 31.0625 84.9134C27.5738 84.9134 24.4434 84.1331 21.7489 82.4926C19.054 80.8519 16.9128 78.4226 15.2924 75.3101ZM45.0625 74.4328C48.0208 68.7505 49.5 59.6378 49.5 47.0947C49.5 34.5095 48.0208 25.3758 45.0625 19.6935C42.1458 13.9691 37.4792 11.1069 31.0625 11.1069C24.6875 11.1069 20.0208 13.9902 17.0625 19.7566C14.1042 25.481 12.625 34.5937 12.625 47.0947C12.625 59.5536 14.1042 68.6453 17.0625 74.3697C20.0208 80.0519 24.6875 82.8931 31.0625 82.8931C37.4792 82.8931 42.1458 80.073 45.0625 74.4328ZM52.4039 13.4986L52.4011 13.4945C47.552 6.18561 40.5338 2.52037 31.0625 2.52037C21.6366 2.52037 14.6617 6.18224 9.85296 13.4883C4.95805 20.9252 2.375 32.0365 2.375 47.0947C2.375 62.1107 4.95803 73.1775 9.85023 80.5707C14.657 87.8349 21.632 91.4796 31.0625 91.4796C40.5832 91.4796 47.5966 87.8295 52.3998 80.5707L52.4039 80.5645C57.3343 73.1726 59.9375 62.1085 59.9375 47.0947C59.9375 31.994 57.3334 20.8891 52.4039 13.4986ZM54.0625 12.3697C48.8125 4.45655 41.1458 0.5 31.0625 0.5C21.0208 0.5 13.3958 4.45655 8.1875 12.3697C2.97917 20.2828 0.374999 31.8578 0.374998 47.0947C0.374998 62.2895 2.97916 73.8225 8.1875 81.6935C13.3958 89.5645 21.0208 93.5 31.0625 93.5C41.1875 93.5 48.8542 89.5645 54.0625 81.6935C59.3125 73.8225 61.9375 62.2895 61.9375 47.0947C61.9375 31.8157 59.3125 20.2407 54.0625 12.3697ZM85.587 45.8701L85.5786 45.8607C82.0484 41.9141 80.375 36.7398 80.375 30.553C80.375 24.1916 82.1143 18.8706 85.7686 14.8005C89.4421 10.7089 94.318 8.70774 100.187 8.70774C106.194 8.70774 111.172 10.6672 114.898 14.715C118.615 18.7096 120.375 24.0252 120.375 30.4267C120.375 36.7976 118.587 42.0656 114.807 45.9801L114.798 45.989C111.009 49.8646 105.888 51.7037 99.6875 51.7037C93.9588 51.7037 89.1908 49.798 85.5956 45.8795L85.587 45.8701ZM113.437 16.0947C110.146 12.517 105.729 10.7281 100.187 10.7281C94.8125 10.7281 90.5 12.538 87.25 16.1578C84 19.7777 82.375 24.576 82.375 30.553C82.375 36.3615 83.9375 41.0126 87.0625 44.5061C90.2292 47.9576 94.4375 49.6833 99.6875 49.6833C105.479 49.6833 110.042 47.9786 113.375 44.5692C116.708 41.1178 118.375 36.4036 118.375 30.4267C118.375 24.4077 116.729 19.6303 113.437 16.0947ZM86.9375 79.2312C84.1042 76.6636 82.625 73.149 82.5 68.6874H70.75C70.7538 69.3734 70.7777 70.0469 70.8218 70.7077C71.2646 77.345 73.7406 82.7116 78.25 86.8075C83.2083 91.2692 89.9167 93.5 98.375 93.5C109.25 93.5 117.625 89.1436 123.5 80.4308C129.375 71.6758 132.312 59.1748 132.312 42.9277C132.312 29.206 129.521 18.7043 123.937 11.4226C118.396 4.14087 110.438 0.5 100.062 0.5C91.0208 0.5 83.7292 3.278 78.1875 8.83401C72.6875 14.39 69.9375 21.6718 69.9375 30.6792C69.9375 39.6025 72.5417 46.8001 77.75 52.2719C82.9583 57.7016 89.7917 60.4165 98.25 60.4165C102.708 60.4165 106.729 59.5747 110.312 57.891C112.951 56.6349 115.292 54.9772 117.334 52.9182C118.098 52.1485 118.82 51.3228 119.5 50.4409C119.439 51.5941 119.362 52.7165 119.269 53.808C118.477 63.1146 116.533 70.1789 113.437 75.001C109.979 80.3466 105 83.0194 98.5 83.0194C93.625 83.0194 89.7708 81.7566 86.9375 79.2312ZM109.464 56.0615C112.799 54.4731 115.613 52.1928 117.922 49.1991L121.838 44.1224L121.497 50.5492C120.907 61.6673 118.856 70.2739 115.116 76.1002L115.112 76.1063C111.272 82.042 105.652 85.0397 98.5 85.0397C93.2828 85.0397 88.9088 83.6827 85.6143 80.7461L85.6081 80.7406L85.602 80.7351C82.7448 78.1459 81.1205 74.7534 80.642 70.7077H72.8265C73.2618 76.8167 75.5399 81.6278 79.5848 85.3029C84.0847 89.3498 90.2713 91.4796 98.375 91.4796C108.621 91.4796 116.362 87.4271 121.846 79.2947C127.405 71.0095 130.312 58.9708 130.312 42.9277C130.312 29.4441 127.564 19.4512 122.356 12.6598L122.352 12.654C117.246 5.94439 109.916 2.52037 100.062 2.52037C91.4602 2.52037 84.7066 5.1462 79.5994 10.265C74.5317 15.3856 71.9375 22.1238 71.9375 30.6792C71.9375 39.1765 74.4025 45.8383 79.1883 50.8681C83.9692 55.851 90.257 58.3961 98.25 58.3961C102.452 58.3961 106.178 57.6044 109.464 56.0615Z" fill="black"/>
</svg>
