<svg width="126" height="94" viewBox="0 0 126 94" fill="none" xmlns="http://www.w3.org/2000/svg">
<path fill-rule="evenodd" clip-rule="evenodd" d="M21.0054 27.3181L21.0054 93.7181H32.7842L32.7842 0.800781L23.9658 0.800781C23.2939 6.73561 21.0474 11.092 17.2261 13.87C13.4048 16.648 7.71484 18.0791 0.156249 18.1633L0.156249 27.3181L21.0054 27.3181ZM2.15625 25.3134L23.0054 25.3134L23.0054 91.9578H30.7842L30.7842 2.80549L25.6998 2.80549C24.7503 8.29225 22.3701 12.6069 18.4003 15.4928C14.4696 18.3504 8.97835 19.816 2.15625 20.1143L2.15625 25.3134ZM78.2553 75.6036L78.2524 75.5982C75.0389 69.4281 73.5532 59.9301 73.5532 47.3955C73.5532 34.8222 75.038 25.3035 78.2508 19.1327C79.8795 15.9835 82.0323 13.5231 84.7453 11.8599C87.4599 10.1958 90.6159 9.403 94.1348 9.403C97.6693 9.403 100.834 10.1881 103.55 11.8407C106.264 13.4926 108.409 15.9379 110.019 19.0694C113.234 25.2028 114.716 34.7463 114.716 47.3955C114.716 60.0081 113.232 69.5319 110.015 75.6644C108.402 78.7584 106.254 81.1712 103.539 82.7992C100.825 84.4264 97.6641 85.1986 94.1348 85.1986C90.6212 85.1986 87.4692 84.4188 84.7565 82.78C82.0433 81.141 79.8872 78.7139 78.2553 75.6036ZM108.244 74.7336C111.226 69.0513 112.716 59.9386 112.716 47.3955C112.716 34.8103 111.226 25.6765 108.244 19.9943C105.305 14.2699 100.602 11.4077 94.1348 11.4077C87.71 11.4077 83.0068 14.2909 80.0254 20.0574C77.0439 25.7818 75.5532 34.8945 75.5532 47.3955C75.5532 59.8544 77.0439 68.9461 80.0254 74.6704C83.0068 80.3527 87.71 83.1939 94.1348 83.1939C100.602 83.1939 105.305 80.3738 108.244 74.7336ZM115.656 13.7906L115.653 13.7865C110.763 6.47298 103.685 2.80549 94.1348 2.80549C84.6304 2.80549 77.596 6.46964 72.7465 13.7804C67.8109 21.221 65.2075 32.3359 65.2075 47.3955C65.2075 62.4128 67.8109 73.4832 72.7438 80.8802C77.5912 88.1491 84.6258 91.7961 94.1348 91.7961C103.735 91.7961 110.808 88.1437 115.652 80.8802L115.656 80.8741C120.627 73.4784 123.251 62.4107 123.251 47.3955C123.251 32.2934 120.626 21.1849 115.656 13.7906ZM117.314 12.6704C112.023 4.75733 104.297 0.800781 94.1348 0.800781C84.0146 0.800781 76.3301 4.75733 71.0811 12.6704C65.832 20.5835 63.2075 32.1586 63.2075 47.3955C63.2075 62.5903 65.832 74.1233 71.0811 81.9943C76.3301 89.8653 84.0146 93.8008 94.1348 93.8008C104.339 93.8008 112.065 89.8653 117.314 81.9943C122.605 74.1233 125.251 62.5903 125.251 47.3955C125.251 32.1165 122.605 20.5414 117.314 12.6704Z" fill="black"/>
</svg>
