<svg width="104" height="94" viewBox="0 0 104 94" fill="none" xmlns="http://www.w3.org/2000/svg">
<path fill-rule="evenodd" clip-rule="evenodd" d="M21.0054 27.2957L21.0054 93.6395H32.7842L32.7842 0.800781L23.9658 0.800781C23.2939 6.73059 21.0474 11.0833 17.2261 13.859C13.4048 16.6346 7.71484 18.0645 0.156249 18.1486L0.156249 27.2957L21.0054 27.2957ZM2.15625 25.2927L23.0054 25.2927L23.0054 92.1372H30.7842L30.7842 2.80379L25.6998 2.80379C24.7503 8.28592 22.3701 12.5969 18.4003 15.4804C14.4696 18.3355 8.97835 19.7999 2.15625 20.098L2.15625 25.2927ZM91.8042 27.2957L91.8042 93.8008H103.583L103.583 0.800781L94.7646 0.800781C94.0928 6.73059 91.8462 11.0833 88.0249 13.859C84.2036 16.6346 78.5137 18.0645 70.9551 18.1486L70.9551 27.2957L91.8042 27.2957ZM72.9551 25.2927L93.8042 25.2927L93.8042 92.1372H101.583L101.583 2.80379L96.4986 2.80379C95.5491 8.28592 93.1689 12.5969 89.1991 15.4804C85.2685 18.3355 79.7772 19.7999 72.9551 20.098L72.9551 25.2927Z" fill="black"/>
</svg>
