<svg width="125" height="94" viewBox="0 0 125 94" fill="none" xmlns="http://www.w3.org/2000/svg">
<path fill-rule="evenodd" clip-rule="evenodd" d="M21.0054 27.2653L21.0054 93.8008H32.7842L32.7842 0.800781L23.9658 0.800781C23.2939 6.7238 21.0474 11.0715 17.2261 13.844C13.4048 16.6165 7.71484 18.0447 0.156249 18.1288L0.156249 27.2653L21.0054 27.2653ZM2.15625 25.2646L23.0054 25.2646L23.0054 92.0326H30.7842L30.7842 2.8015L25.6998 2.8015C24.7503 8.27734 22.3701 12.5834 18.4003 15.4636C14.4696 18.3154 8.97835 19.7782 2.15625 20.0759L2.15625 25.2646ZM98.7959 46.6096L91.1743 50.7684C80.6763 56.5233 73.3066 62.3833 69.0654 68.3484C65.0681 73.9866 62.9733 80.881 62.7812 89.0315C62.7715 89.4432 62.7666 89.8581 62.7666 90.2761L62.7666 93.5331H124.18L124.18 81H75.6792C75.8696 80.322 76.0951 78.5975 76.3559 77.9416C77.5333 74.9807 79.4283 72.2451 82.041 69.7346C85.2744 66.6261 90.3345 63.2655 97.2212 59.6529L104.843 55.8092C111.436 52.3646 116.307 48.3529 119.456 43.7742C122.605 39.1534 124.18 33.7344 124.18 27.5174C124.18 19.536 121.472 13.0879 116.055 8.17305C110.68 3.2582 103.541 0.800781 94.6387 0.800781C85.4424 0.800781 78.1567 3.57326 72.7817 9.11821C67.4866 14.5808 64.7997 22.0003 64.721 31.3767C64.7198 31.518 64.7192 31.6598 64.7192 31.8021L64.7192 33.3774L76.498 33.3774L76.498 32.3062C76.498 25.8371 78.0518 20.7542 81.1592 17.0576C84.3086 13.3609 88.6338 11.5126 94.1348 11.5126C99.5518 11.5126 103.877 12.9619 107.11 15.8604C110.344 18.7589 111.96 22.6025 111.96 27.3913C111.96 31.508 110.89 35.1207 108.748 38.2292C106.648 41.3377 103.331 44.1312 98.7959 46.6096ZM110.4 39.3568C108.067 42.8076 104.466 45.7906 99.7547 48.3654L99.7536 48.3661L92.1355 52.5229C81.7537 58.2141 74.6842 63.8977 70.6952 69.508C66.977 74.7536 64.9877 83.7281 64.7964 91.5324H122.195L122.182 83H73.0416L73.7537 79.4013C74.9128 75.2734 77.2436 71.5701 80.6556 68.2917C84.0892 64.9908 89.342 61.527 96.2924 57.881L96.3066 57.8736L103.93 54.029C110.319 50.6887 114.896 46.8732 117.807 42.6426C120.703 38.3916 122.18 33.377 122.18 27.5174C122.18 20.043 119.669 14.1537 114.711 9.65501L114.705 9.64981C109.777 5.14323 103.158 2.8015 94.6387 2.8015C85.872 2.8015 79.1447 5.428 74.2175 10.511C69.363 15.519 66.7993 22.396 66.7211 31.3767H74.5085C74.6523 25.0144 76.2897 19.7417 79.6285 15.7699L79.637 15.7598C83.2195 11.5548 88.1351 9.5119 94.1348 9.5119C99.9175 9.5119 104.76 11.0672 108.445 14.3704C112.148 17.6898 113.96 22.0991 113.96 27.3913C113.96 31.8718 112.789 35.8859 110.4 39.3568Z" fill="black"/>
</svg>
