<svg width="76" height="72" viewBox="0 0 76 72" fill="none" xmlns="http://www.w3.org/2000/svg">
<path fill-rule="evenodd" clip-rule="evenodd" d="M7.66803 0H0.65918V3.82292V7.00885V15.9291H3.20779V24.849V33.7697V71.9994H72.6591V24.849H72.6589V15.9291H75.2076V7.00885H75.208V0H68.1991V3.82292H65.0135V0H58.0047V3.82292H54.1811V0H47.1722V3.82292V7.00885V15.9291H49.7208V24.849H26.1458V15.9291H28.6946V7.00885H28.6949V0H21.6861V3.82292H18.4996V0H11.4908V3.82292H7.66803V0ZM51.6292 49.0606C51.6316 48.9546 51.6328 48.8484 51.6328 48.7419C51.6328 41.1761 45.4995 35.0428 37.9337 35.0428C30.3679 35.0428 24.2346 41.1761 24.2346 48.7419C24.2346 48.8484 24.2358 48.9546 24.2382 49.0606H24.235V71.9986H51.6332V49.0606H51.6292Z" fill="black"/>
</svg>
