<svg width="26" height="28" viewBox="0 0 26 28" fill="none" xmlns="http://www.w3.org/2000/svg">
<path d="M15.8569 25.416L24.1221 20.6441L22.7037 18.377L22.4634 15.0812L22.4591 15.0737L18.1786 7.65972C18.0622 7.45813 17.8031 7.3887 17.6015 7.50509L16.4293 8.18186C16.2277 8.29825 16.1657 8.55304 16.2704 8.75147L17.8084 11.4672L17.5471 11.6181L15.2935 7.66294C15.2245 7.54348 15.1107 7.44988 14.9694 7.41201C14.8281 7.37415 14.6902 7.39401 14.5708 7.46298L13.3761 8.15269C13.1223 8.29925 13.0414 8.62469 13.1837 8.87108L14.9812 11.9845L14.6975 12.1483L12.4128 8.19119C12.2318 7.87761 11.8314 7.77032 11.5178 7.95137L10.5024 8.53762C10.353 8.62383 10.2457 8.76546 10.194 8.93465C10.1498 9.09953 10.172 9.27587 10.2625 9.43267L12.2937 12.899L11.9652 13.0887L7.75313 5.9139C7.36633 5.26117 6.59505 4.95984 5.91384 5.19386C5.46325 5.3445 5.11295 5.68612 4.94593 6.12102C4.7789 6.55592 4.81956 7.04016 5.05233 7.44334L10.5614 16.9853C10.6346 17.1122 10.5956 17.2343 10.5264 17.3041C10.4572 17.3739 10.3484 17.4268 10.2177 17.3728L7.44047 16.149C6.76226 15.8537 5.9699 16.1021 5.62831 16.7174C5.44689 17.0412 5.41542 17.4177 5.51749 17.767C5.61956 18.1162 5.85719 18.4071 6.17232 18.5736L14.5132 23.1058L15.8495 25.4203L15.8569 25.416Z" fill="black"/>
</svg>
