<svg width="373" height="399" viewBox="0 0 373 399" fill="none" xmlns="http://www.w3.org/2000/svg">
<path d="M161.381 328.707L207.22 297.909L212.095 305.164L193.248 317.826L228.485 370.272L220.338 375.745L185.102 323.3L166.255 335.962L161.381 328.707ZM214.394 293.089L222.095 287.916L251.667 331.931C251.564 330.902 251.507 329.882 251.494 328.871C251.49 327.815 251.567 326.528 251.724 325.011L256.512 270.498L253.87 266.567L261.612 261.366L301.722 321.066L293.981 326.267L264.027 281.684C264.176 282.722 264.26 283.724 264.282 284.69C264.303 285.656 264.275 286.636 264.198 287.629L259.183 343.117L262.206 347.616L254.505 352.79L214.394 293.089ZM299.597 246.021C299.543 246.057 299.462 246.112 299.354 246.184C298.904 246.565 298.504 246.874 298.152 247.11C293.667 250.123 291.023 253.017 290.22 255.792C289.445 258.548 290.246 261.696 292.624 265.236C294.803 268.478 297.464 270.337 300.607 270.814C303.751 271.29 307.079 270.348 310.592 267.988L313.186 266.245L327.047 256.932L313.459 236.708L299.597 246.021ZM293.549 239.908L316.692 224.359L356.803 284.06L348.778 289.451L331.595 263.877L316.153 274.252C311.938 277.084 309.514 279.575 308.881 281.726C308.256 283.832 309.161 286.989 311.596 291.196L316.338 299.305C316.638 299.809 316.969 300.391 317.333 301.048C317.705 301.661 317.919 302.008 317.973 302.089C318.499 302.872 318.991 303.895 319.447 305.158C319.884 306.393 320.164 307.539 320.285 308.595L310.923 314.885L309.806 313.223C310.326 312.129 310.462 310.959 310.213 309.714C309.947 308.442 309.164 306.693 307.865 304.468L301.937 294.156C299.639 290.21 298.477 287.167 298.451 285.028C298.452 282.87 299.397 280.686 301.285 278.476C297.685 279.013 294.433 278.609 291.53 277.266C288.609 275.895 286.068 273.602 283.908 270.386C280.332 265.063 279.126 259.971 280.291 255.11C281.484 250.23 284.957 245.857 290.713 241.99C290.767 241.954 290.893 241.849 291.091 241.677C291.946 241.024 292.766 240.434 293.549 239.908Z" fill="#222222"/>
<path d="M79.1756 72.9113L69.8993 75.265C67.8785 70.8745 64.8994 67.869 60.962 66.2486C57.0481 64.5885 52.4407 64.431 47.14 65.776C40.0407 67.5773 35.1633 71.4511 32.5077 77.3975C29.8521 83.344 29.6692 90.8291 31.9588 99.8531C34.1044 108.309 37.853 114.612 43.2046 118.762C48.5878 122.904 54.5924 124.134 61.2183 122.453C66.9924 120.988 71.2572 118.008 74.0126 113.514C76.7995 109.012 77.5511 103.834 76.2674 97.9805L85.4491 95.6508C87.2631 104.124 86.1011 111.589 81.963 118.046C77.825 124.503 71.4964 128.812 62.9773 130.973C53.3223 133.423 44.8302 132.051 37.5012 126.859C30.1721 121.666 25.0585 113.358 22.1604 101.936C19.2944 90.6405 19.9238 81.0103 24.0487 73.0454C28.1735 65.0806 35.2528 59.8253 45.2864 57.2795C53.1745 55.278 60.1828 55.6995 66.3115 58.5439C72.4322 61.3568 76.7202 66.1459 79.1756 72.9113ZM117.185 47.8018C109.928 49.6432 104.874 53.6124 102.021 59.7095C99.1607 65.7751 98.8633 73.2725 101.129 82.2018C103.387 91.0995 107.223 97.5482 112.637 101.548C118.051 105.547 124.387 106.627 131.644 104.785C138.869 102.952 143.892 98.9907 146.713 92.9016C149.534 86.8125 149.816 79.319 147.558 70.4213C145.292 61.492 141.472 55.0393 136.098 51.0633C130.715 47.0557 124.411 45.9685 117.185 47.8018ZM115.096 39.5667C125.382 36.9568 134.268 38.1612 141.754 43.1799C149.241 48.1986 154.441 56.4505 157.355 67.9355C160.269 79.4205 159.632 89.1535 155.444 97.1343C151.256 105.115 144.019 110.41 133.733 113.02C123.416 115.638 114.498 114.442 106.98 109.431C99.4621 104.42 94.2461 96.1726 91.332 84.6876C88.4178 73.2026 89.0706 63.4656 93.2901 55.4768C97.5096 47.4879 104.778 42.1846 115.096 39.5667ZM168.549 78.898L166.604 71.2308L190.031 65.2865L191.977 72.9537L168.549 78.898Z" fill="#222222"/>
<path d="M49.292 212.485C56.5562 214.158 61.8863 217.34 65.2822 222.03C68.7172 226.696 69.7296 232.091 68.3196 238.213C66.9023 244.367 63.625 248.806 58.4878 251.532C53.3823 254.264 47.1974 254.794 39.9332 253.121L10.2417 246.282L26.384 176.193L72.6342 186.845L70.6287 195.553L33.9902 187.115L29.2122 207.861L49.292 212.485ZM27.2759 215.833L21.7308 239.909L41.0493 244.359C45.9027 245.476 49.8235 245.277 52.8117 243.761C55.7999 242.244 57.7616 239.456 58.6967 235.395C59.6245 231.367 59.0193 228.121 56.8809 225.657C54.7815 223.17 50.9879 221.294 45.5 220.03L27.2759 215.833ZM91.1316 230.539L85.5865 254.616L104.905 259.065C109.758 260.183 113.679 259.984 116.667 258.467C119.656 256.951 121.617 254.162 122.552 250.102C123.48 246.073 122.875 242.827 120.737 240.364C118.637 237.876 114.844 236 109.356 234.736L91.1316 230.539ZM154.238 205.64L163.802 207.842L147.66 277.931L138.096 275.729L154.238 205.64ZM90.2397 190.9L99.8513 193.114L93.0678 222.567L113.148 227.192C120.412 228.865 125.742 232.047 129.138 236.737C132.573 241.403 133.585 246.797 132.175 252.92C130.751 259.105 127.47 263.561 122.332 266.286C117.203 268.979 111.021 269.493 103.789 267.827L74.0974 260.989L90.2397 190.9ZM163.941 258.582L165.717 250.874L189.27 256.298L187.495 264.007L163.941 258.582Z" fill="#222222"/>
</svg>
