<svg width="1399" height="747" viewBox="0 0 1399 747" fill="none" xmlns="http://www.w3.org/2000/svg">
<mask id="path-1-inside-1" fill="white">
<path fill-rule="evenodd" clip-rule="evenodd" d="M1398.17 423.13L976.829 0.73633L902.738 275.875L888.879 199.258L620.357 247.832C588.853 107.691 463.652 2.99927 314 2.99927C140.583 2.99927 0 143.582 0 316.999C0 490.417 140.583 630.999 314 630.999C371.589 630.999 425.557 615.496 471.959 588.435L500.487 746.14L972.365 660.78L950.945 542.369L1398.17 423.13Z"/>
</mask>
<path d="M976.829 0.73633L978.245 -0.676123L975.798 -3.12866L974.897 0.216289L976.829 0.73633ZM1398.17 423.13L1398.69 425.063L1402.04 424.17L1399.59 421.718L1398.17 423.13ZM902.738 275.875L900.77 276.231L904.67 276.395L902.738 275.875ZM888.879 199.258L890.847 198.902L890.491 196.934L888.523 197.29L888.879 199.258ZM620.357 247.832L618.406 248.27L618.826 250.141L620.713 249.8L620.357 247.832ZM471.959 588.435L473.927 588.079L473.418 585.268L470.951 586.707L471.959 588.435ZM500.487 746.14L498.518 746.496L498.874 748.464L500.843 748.108L500.487 746.14ZM972.365 660.78L972.721 662.748L974.689 662.392L974.333 660.424L972.365 660.78ZM950.945 542.369L950.43 540.436L948.649 540.911L948.977 542.725L950.945 542.369ZM975.413 2.14878L1396.76 424.543L1399.59 421.718L978.245 -0.676123L975.413 2.14878ZM904.67 276.395L978.76 1.25637L974.897 0.216289L900.807 275.355L904.67 276.395ZM886.911 199.614L900.77 276.231L904.707 275.519L890.847 198.902L886.911 199.614ZM620.713 249.8L889.235 201.226L888.523 197.29L620.001 245.864L620.713 249.8ZM314 4.99927C462.697 4.99927 587.102 109.023 618.406 248.27L622.308 247.393C590.603 106.36 464.608 0.999268 314 0.999268V4.99927ZM2 316.999C2 144.686 141.687 4.99927 314 4.99927V0.999268C139.478 0.999268 -2 142.477 -2 316.999H2ZM314 628.999C141.687 628.999 2 489.312 2 316.999H-2C-2 491.521 139.478 632.999 314 632.999V628.999ZM470.951 586.707C424.847 613.595 371.226 628.999 314 628.999V632.999C371.953 632.999 426.268 617.397 472.966 590.162L470.951 586.707ZM502.455 745.784L473.927 588.079L469.991 588.791L498.518 746.496L502.455 745.784ZM972.009 658.812L500.131 744.172L500.843 748.108L972.721 662.748L972.009 658.812ZM948.977 542.725L970.397 661.136L974.333 660.424L952.913 542.013L948.977 542.725ZM1397.66 421.198L950.43 540.436L951.461 544.301L1398.69 425.063L1397.66 421.198Z" fill="black" mask="url(#path-1-inside-1)"/>
</svg>
