<svg width="259" height="259" viewBox="0 0 259 259" fill="none" xmlns="http://www.w3.org/2000/svg">
<path fill-rule="evenodd" clip-rule="evenodd" d="M129.018 258.036C200.273 258.036 258.036 200.273 258.036 129.018C258.036 57.7634 200.273 0 129.018 0C57.7634 0 0 57.7634 0 129.018C0 200.273 57.7634 258.036 129.018 258.036ZM129.489 239.201C190.601 239.201 240.143 189.659 240.143 128.547C240.143 67.434 190.601 17.8924 129.489 17.8924C68.376 17.8924 18.8344 67.434 18.8344 128.547C18.8344 189.659 68.376 239.201 129.489 239.201Z" fill="black"/>
<circle cx="129.489" cy="129.488" r="49.4413" fill="#34A3B2"/>
<path fill-rule="evenodd" clip-rule="evenodd" d="M129.017 227.9C183.629 227.9 227.9 183.629 227.9 129.017C227.9 74.406 183.629 30.1348 129.017 30.1348C74.406 30.1348 30.1348 74.406 30.1348 129.017C30.1348 183.629 74.406 227.9 129.017 227.9ZM129.016 182.696C158.663 182.696 182.696 158.663 182.696 129.017C182.696 99.3709 158.663 75.3379 129.016 75.3379C99.3703 75.3379 75.3373 99.3709 75.3373 129.017C75.3373 158.663 99.3703 182.696 129.016 182.696Z" fill="#34A3B2"/>
</svg>
