<svg width="448" height="448" viewBox="0 0 448 448" fill="none" xmlns="http://www.w3.org/2000/svg">
<path fill-rule="evenodd" clip-rule="evenodd" d="M448 0H0V448H217.863L217.872 437.895H217.875V426.205C108.643 423.14 21.0345 333.629 21.0345 223.656C21.0345 111.746 111.755 21.0251 223.665 21.0251C335.575 21.0251 426.295 111.746 426.295 223.656C426.295 332.879 339.877 421.919 231.685 426.13V437.895H231.686L231.723 448H448V0ZM224.005 405.852C324.441 405.852 405.861 324.432 405.861 223.996C405.861 176.05 387.307 132.438 356.987 99.9478L346.03 110.904C373.448 140.638 390.195 180.36 390.195 223.995C390.195 316.156 315.484 390.867 223.323 390.867C179.689 390.867 139.967 374.12 110.233 346.702L99.9575 356.978C132.447 387.298 176.059 405.852 224.005 405.852ZM336.259 101.145L347.19 90.2139C314.793 60.3675 271.527 42.139 224.005 42.139C176.097 42.139 132.516 60.664 100.034 90.9414L110.309 101.217C140.035 73.841 179.727 57.1225 223.323 57.1225C266.882 57.1225 306.542 73.8118 336.259 101.145ZM100.544 110.982L90.2948 100.732C60.4058 133.138 42.1481 176.435 42.1481 223.996C42.1481 271.519 60.3768 314.784 90.2236 347.182L100.474 336.931C73.1407 307.214 56.4511 267.553 56.4511 223.995C56.4511 180.399 73.1693 140.707 100.544 110.982ZM322.321 333.44C296.264 356.862 261.798 371.114 224.003 371.114C145.098 371.114 80.7011 308.996 77.047 230.995H91.3697C95.0089 300.717 152.695 356.13 223.323 356.13C257.153 356.13 288.014 343.417 311.388 322.507L322.321 333.44ZM332.15 323.738C356.343 297.519 371.123 262.483 371.123 223.994C371.123 144.859 308.643 80.3175 230.323 77.0077V92.0417C300.045 95.6808 355.458 153.367 355.458 223.995C355.458 258.172 342.483 289.319 321.189 312.777L332.15 323.738ZM216.512 77.0618V92.032C148.957 95.4619 94.7896 149.629 91.3599 217.185H77.0382C80.4827 141.578 140.995 80.849 216.512 77.0618ZM335.523 217.185C332.171 158.316 283.372 111.612 223.664 111.612C161.784 111.612 111.621 161.775 111.621 223.655C111.621 283.132 157.965 331.785 216.512 335.473V321.819C165.495 318.155 125.244 275.606 125.244 223.655C125.244 169.299 169.308 125.234 223.664 125.234C275.847 125.234 318.544 165.845 321.876 217.185H335.523ZM335.47 230.995C331.832 287.254 286.672 332.2 230.322 335.503V321.854C279.146 318.592 318.222 279.727 321.815 230.995H335.47ZM299.607 223.995C299.607 266.126 265.453 300.28 223.323 300.28C183.552 300.28 150.889 269.845 147.355 230.995H162.419C165.893 261.553 191.836 285.294 223.324 285.294C257.179 285.294 284.624 257.849 284.624 223.994C284.624 209.517 279.605 196.211 271.212 185.723L281.859 175.076C292.938 188.319 299.607 205.378 299.607 223.995ZM162.398 217.185H147.338C150.783 178.245 183.487 147.711 223.323 147.711C241.864 147.711 258.86 154.326 272.08 165.324L261.43 175.975C250.967 167.661 237.725 162.694 223.324 162.694C191.77 162.694 165.785 186.534 162.398 217.185ZM222.983 265.542C232.407 265.542 241.104 262.43 248.103 257.177L238.419 247.493C234.066 250.295 228.885 251.92 223.324 251.92C207.901 251.92 195.398 239.417 195.398 223.995C195.398 208.572 207.901 196.069 223.324 196.069C238.747 196.069 251.249 208.572 251.249 223.995C251.249 228.845 250.013 233.407 247.838 237.381L257.642 247.185C262.204 240.478 264.871 232.377 264.871 223.654C264.871 200.519 246.117 181.765 222.983 181.765C199.849 181.765 181.095 200.519 181.095 223.654C181.095 246.788 199.849 265.542 222.983 265.542Z" fill="#3D743F"/>
</svg>
