<svg xmlns="http://www.w3.org/2000/svg" viewBox="0 0 448 448"><defs><style>.cls-1{fill:#3d743f;fill-rule:evenodd;}</style></defs><g id="Layer_2" data-name="Layer 2"><g id="Layer_1-2" data-name="Layer 1"><path class="cls-1" d="M448,0H0V448H217.86V437.89h0V426.2C108.64,423.14,21,333.63,21,223.66,21,111.75,111.75,21,223.66,21S426.3,111.75,426.3,223.66c0,109.22-86.42,198.26-194.62,202.47v11.76h0l0,10.11H448ZM224,405.85A181.86,181.86,0,0,0,357,100l-11,11a166.87,166.87,0,0,1-235.8,235.8L100,357A181.21,181.21,0,0,0,224,405.85ZM336.26,101.14l10.93-10.93A181.88,181.88,0,0,0,100,90.94l10.28,10.28a166.87,166.87,0,0,1,226-.08ZM100.54,111,90.29,100.73a181.88,181.88,0,0,0-.07,246.45l10.25-10.25A166.88,166.88,0,0,1,100.54,111ZM322.32,333.44A147.12,147.12,0,0,1,77.05,231H91.37a132.14,132.14,0,0,0,220,91.52Zm9.83-9.7A147.13,147.13,0,0,0,230.32,77V92a132.14,132.14,0,0,1,90.87,220.74ZM216.51,77.06V92A132.15,132.15,0,0,0,91.36,217.18H77A147.13,147.13,0,0,1,216.51,77.06Zm119,140.12a112,112,0,1,0-119,118.29V321.82A98.43,98.43,0,1,1,321.88,217.18Zm0,13.81A112.06,112.06,0,0,1,230.32,335.5V321.85A98.44,98.44,0,0,0,321.82,231Zm-35.86-7a76.29,76.29,0,0,1-152.26,7h15.07a61.3,61.3,0,1,0,108.79-45.27l10.65-10.64A76,76,0,0,1,299.61,224ZM162.4,217.18H147.34a76.29,76.29,0,0,1,124.74-51.86L261.43,176a61.3,61.3,0,0,0-99,41.2ZM223,265.54a41.71,41.71,0,0,0,25.12-8.36l-9.68-9.69a27.89,27.89,0,1,1,9.42-10.11l9.8,9.8A41.89,41.89,0,1,0,223,265.54Z"/></g></g></svg>