<svg width="170" height="62" viewBox="0 0 170 62" fill="none" xmlns="http://www.w3.org/2000/svg">
<g clip-path="url(#clip0)">
<path d="M146.734 42.8634L141.671 40.956L136.922 53.8549L129.646 51.1127L141.43 19.0938L148.706 21.8457L143.943 34.7902L149.196 36.7563L162.279 26.9485L170.012 29.8602L153.955 41.4092L158.541 61.9998L150.22 58.8664L146.734 42.8634Z" fill="black"/>
<path d="M28.125 26.7996L44.1466 38.5019L32.6105 43.7677L21.8478 35.3163L18.9831 36.6205L23.9326 47.726L13.6951 52.4017L0 21.6772L10.2375 17.0048L15.345 28.4593L18.4675 27.0344L19.8241 12.6291L30.4966 7.75781L28.125 26.7996Z" fill="black"/>
<path d="M64.5218 26.0651C64.9193 27.6737 64.6872 29.3692 63.8258 31.1516C62.6786 33.5427 60.9267 34.9676 58.5701 35.4262C56.2135 35.8849 53.3885 35.3045 50.0952 33.6851L37.6504 27.5487L50.9137 0L62.6206 5.77123C65.6024 7.24284 67.6357 9.0003 68.7206 11.0436C69.8055 13.0869 69.799 15.2498 68.7013 17.5322C68.0821 18.9059 67.0503 20.047 65.7528 20.7927C64.4429 21.4893 62.9573 21.7743 61.4863 21.6111C63.1104 22.9741 64.1223 24.4587 64.5218 26.0651ZM60.0492 28.9018C60.8096 27.328 60.844 25.9075 60.1523 24.6402C59.4605 23.373 58.0781 22.2296 56.0051 21.2101L47.4883 17.0105L42.9963 26.339L51.5131 30.5386C55.6893 32.5971 58.5346 32.0515 60.0492 28.9018ZM48.9287 14.0205L56.511 17.7571C58.4036 18.6897 60.032 19.0222 61.3961 18.7549C62.7603 18.4875 63.7968 17.618 64.5057 16.1464C65.2146 14.6791 65.249 13.3086 64.6088 12.0348C63.9687 10.761 62.7162 9.66437 60.8515 8.74489L53.2661 5.00826L48.9287 14.0205Z" fill="black"/>
<path d="M49.1477 52.1197H30.5674L24.6769 61.3699H22.0732L43.1799 28.5H45.5096L53.8137 61.3699H51.4292L49.1477 52.1197ZM48.645 50.0981L43.9436 31.0335L31.8435 50.0981H48.645Z" fill="black"/>
<path d="M99.3271 12.8887C102.59 14.9493 104.524 18.173 105.127 22.5595C105.716 26.907 104.714 30.5175 102.121 33.3912C99.5279 36.2649 95.6546 38.0614 90.501 38.7809L78.7876 40.4112L80.6276 53.9818L77.6404 54.3991L71.998 12.9115L86.6985 10.8671C91.8544 10.1432 96.0639 10.8171 99.3271 12.8887ZM99.7395 31.7609C101.776 29.4981 102.553 26.5722 102.069 22.9834C101.586 19.3946 100.057 16.7785 97.4839 15.1352C94.906 13.5006 91.4344 12.9876 87.0691 13.5962L75.3558 15.2265L78.4041 37.6854L90.1175 36.0551C94.4871 35.4465 97.6944 34.0151 99.7395 31.7609Z" fill="black"/>
<path d="M117.346 28.504L126.511 37.2685L120.582 43.6168L117.108 40.2943L108.543 49.4663L112.017 52.7856L106.087 59.134L96.9229 50.3695L97.3773 49.8837C98.2817 48.912 98.4278 47.7676 97.8155 46.4503C97.2032 45.133 96.0013 43.5614 94.2096 41.7355L88.2031 35.586L103.377 19.3418L115.274 30.718L117.346 28.504ZM103.474 39.4139C104.085 40.1849 104.503 41.0929 104.695 42.0615L108.884 37.5685L102.646 31.6016L99.4396 35.0317L100.506 36.1077C101.563 37.1453 102.555 38.2496 103.474 39.4139Z" fill="black"/>
<path d="M138.885 7.17383L136.516 33.5063L133.523 33.7704L133.916 29.6164C132.958 31.0579 131.701 32.2708 130.232 33.1705C128.721 34.079 127.023 34.6214 125.27 34.7551C123.44 34.9514 121.592 34.6521 119.914 33.8878C118.3 33.1333 116.941 31.9156 116.006 30.3859C114.962 28.6514 114.349 26.6868 114.22 24.6603C113.943 21.94 114.291 19.1917 115.235 16.6295C116.081 14.3078 117.538 12.2638 119.447 10.7181C121.314 9.21372 123.584 8.31073 125.963 8.12592C128.165 7.93028 130.055 8.25091 131.634 9.08779C133.231 9.93821 134.504 11.3006 135.253 12.9614L135.752 7.45424L138.885 7.17383ZM130.664 29.5806C132.141 28.3582 133.257 26.747 133.887 24.9244C134.598 22.894 134.853 20.7285 134.631 18.5859C134.416 16.0557 133.577 14.1352 132.114 12.8244C130.651 11.5137 128.718 10.9702 126.314 11.1941C124.476 11.3351 122.725 12.0455 121.3 13.2287C119.826 14.4644 118.712 16.083 118.078 17.9109C117.363 19.9439 117.105 22.1128 117.324 24.2593C117.538 26.7895 118.376 28.7013 119.837 29.9946C121.298 31.288 123.231 31.8314 125.637 31.6249C127.48 31.4779 129.234 30.7646 130.664 29.5806Z" fill="black"/>
<path d="M80.6431 47.4118L60.3905 58.0673L56.7137 53.3591L58.6955 52.2896C56.6892 51.9572 54.8364 50.9967 53.3977 49.5432C51.959 48.0898 51.0067 46.2166 50.675 44.187C50.4363 42.5353 50.6595 40.8489 51.3194 39.319C52.0714 37.5918 53.2499 36.0894 54.7416 34.9563C56.546 33.4718 58.6863 32.4635 60.9705 32.0218C63.0867 31.607 65.2744 31.7782 67.3025 32.5174C69.3002 33.243 71.0519 34.5302 72.3519 36.228C74.4057 38.8603 74.9707 41.4221 74.0469 43.9131L76.7827 42.4524L80.6431 47.4118ZM60.7868 48.8138C61.8958 49.1864 63.0858 49.2373 64.2219 48.9605C65.5078 48.6479 66.7066 48.0436 67.7278 47.1933C68.9265 46.2347 69.6065 45.1326 69.7676 43.8871C69.9287 42.6415 69.5281 41.4025 68.5656 40.17C67.86 39.2341 66.8954 38.5316 65.7944 38.1517C64.6868 37.7779 63.4978 37.7259 62.3626 38.0017C61.0755 38.3164 59.8764 38.9242 58.8566 39.7787C57.6536 40.7373 56.9737 41.8405 56.8168 43.0882C56.66 44.3359 57.0553 45.5706 58.0027 46.7922C58.7132 47.7294 59.6819 48.4328 60.7868 48.8138Z" fill="black"/>
</g>
<defs>
<clipPath id="clip0">
<rect width="170" height="62" fill="white"/>
</clipPath>
</defs>
</svg>
