<svg width="170" height="62" viewBox="0 0 170 62" fill="none" xmlns="http://www.w3.org/2000/svg">
<g clip-path="url(#clip0)">
<path d="M146.735 42.8634L141.672 40.956L136.923 53.8549L129.646 51.1127L141.431 19.0938L148.707 21.8457L143.944 34.7902L149.197 36.7563L162.28 26.9485L170.013 29.8602L153.956 41.4092L158.542 61.9998L150.221 58.8664L146.735 42.8634Z" fill="black"/>
<path d="M28.125 26.7996L44.1466 38.5019L32.6105 43.7677L21.8478 35.3163L18.9831 36.6205L23.9326 47.726L13.6951 52.4017L0 21.6772L10.2375 17.0048L15.345 28.4593L18.4675 27.0344L19.8241 12.6291L30.4966 7.75781L28.125 26.7996Z" fill="black"/>
<path d="M64.5218 26.0651C64.9193 27.6737 64.6872 29.3692 63.8258 31.1516C62.6786 33.5427 60.9267 34.9676 58.5701 35.4262C56.2135 35.8849 53.3885 35.3045 50.0952 33.6851L37.6504 27.5487L50.9137 0L62.6206 5.77123C65.6024 7.24284 67.6357 9.0003 68.7206 11.0436C69.8055 13.0869 69.799 15.2498 68.7013 17.5322C68.0821 18.9059 67.0503 20.047 65.7528 20.7927C64.4429 21.4893 62.9573 21.7743 61.4863 21.6111C63.1104 22.9741 64.1223 24.4587 64.5218 26.0651ZM60.0492 28.9018C60.8096 27.328 60.844 25.9075 60.1523 24.6402C59.4605 23.373 58.0781 22.2296 56.0051 21.2101L47.4883 17.0105L42.9963 26.339L51.5131 30.5386C55.6893 32.5971 58.5346 32.0515 60.0492 28.9018ZM48.9287 14.0205L56.511 17.7571C58.4036 18.6897 60.032 19.0222 61.3961 18.7549C62.7603 18.4875 63.7968 17.618 64.5057 16.1464C65.2146 14.6791 65.249 13.3086 64.6088 12.0348C63.9687 10.761 62.7162 9.66437 60.8515 8.74489L53.2661 5.00826L48.9287 14.0205Z" fill="black"/>
<path d="M49.1487 52.1197H30.5684L24.6779 61.3699H22.0742L43.1808 28.5H45.5106L53.8147 61.3699H51.4301L49.1487 52.1197ZM48.646 50.0981L43.9445 31.0335L31.8445 50.0981H48.646Z" fill="black"/>
<path d="M99.3271 12.8887C102.59 14.9493 104.524 18.173 105.127 22.5595C105.716 26.907 104.714 30.5175 102.121 33.3912C99.5279 36.2649 95.6546 38.0614 90.501 38.7809L78.7876 40.4112L80.6276 53.9818L77.6404 54.3991L71.998 12.9115L86.6985 10.8671C91.8544 10.1432 96.0639 10.8171 99.3271 12.8887ZM99.7395 31.7609C101.776 29.4981 102.553 26.5722 102.069 22.9834C101.586 19.3946 100.057 16.7785 97.4839 15.1352C94.906 13.5006 91.4344 12.9876 87.0691 13.5962L75.3558 15.2265L78.4041 37.6854L90.1175 36.0551C94.4871 35.4465 97.6944 34.0151 99.7395 31.7609Z" fill="black"/>
<path d="M117.346 28.5021L126.511 37.2665L120.582 43.6149L117.108 40.2924L108.543 49.4644L112.017 52.7836L106.087 59.132L96.9229 50.3676L97.3773 49.8817C98.2817 48.9101 98.4278 47.7656 97.8155 46.4483C97.2032 45.1311 96.0013 43.5595 94.2096 41.7335L88.2031 35.5841L103.377 19.3398L115.274 30.716L117.346 28.5021ZM103.474 39.412C104.085 40.183 104.503 41.0909 104.695 42.0596L108.884 37.5665L102.646 31.5996L99.4396 35.0298L100.506 36.1058C101.563 37.1433 102.555 38.2476 103.474 39.412Z" fill="black"/>
<path d="M138.886 7.17188L136.517 33.5043L133.524 33.7684L133.917 29.6145C132.959 31.056 131.702 32.2688 130.233 33.1685C128.722 34.0771 127.024 34.6194 125.271 34.7531C123.441 34.9495 121.593 34.6501 119.915 33.8858C118.301 33.1313 116.942 31.9136 116.007 30.384C114.963 28.6495 114.35 26.6848 114.221 24.6584C113.944 21.9381 114.292 19.1898 115.236 16.6276C116.082 14.3059 117.539 12.2619 119.448 10.7161C121.315 9.21177 123.584 8.30878 125.964 8.12397C128.166 7.92833 130.056 8.24895 131.635 9.08584C133.232 9.93626 134.505 11.2986 135.254 12.9594L135.753 7.45229L138.886 7.17188ZM130.665 29.5786C132.142 28.3562 133.258 26.745 133.888 24.9225C134.599 22.8921 134.853 20.7265 134.632 18.5839C134.417 16.0537 133.578 14.1332 132.115 12.8225C130.652 11.5117 128.719 10.9683 126.315 11.1922C124.477 11.3332 122.726 12.0436 121.301 13.2268C119.827 14.4624 118.713 16.0811 118.079 17.909C117.364 19.942 117.106 22.1108 117.325 24.2573C117.539 26.7875 118.377 28.6993 119.838 29.9927C121.299 31.2861 123.232 31.8295 125.638 31.623C127.481 31.476 129.235 30.7627 130.665 29.5786Z" fill="black"/>
<path d="M80.6431 47.4118L60.3905 58.0673L56.7137 53.3591L58.6955 52.2896C56.6892 51.9572 54.8364 50.9967 53.3977 49.5432C51.959 48.0898 51.0067 46.2166 50.675 44.187C50.4363 42.5353 50.6595 40.8489 51.3194 39.319C52.0714 37.5918 53.2499 36.0894 54.7416 34.9563C56.546 33.4718 58.6863 32.4635 60.9705 32.0218C63.0867 31.607 65.2744 31.7782 67.3025 32.5174C69.3002 33.243 71.0519 34.5302 72.3519 36.228C74.4057 38.8603 74.9707 41.4221 74.0469 43.9131L76.7827 42.4524L80.6431 47.4118ZM60.7868 48.8138C61.8958 49.1864 63.0858 49.2373 64.2219 48.9605C65.5078 48.6479 66.7066 48.0436 67.7278 47.1933C68.9265 46.2347 69.6065 45.1326 69.7676 43.8871C69.9287 42.6415 69.5281 41.4025 68.5656 40.17C67.86 39.2341 66.8954 38.5316 65.7944 38.1517C64.6868 37.7779 63.4978 37.7259 62.3626 38.0017C61.0755 38.3164 59.8764 38.9242 58.8566 39.7787C57.6536 40.7373 56.9737 41.8405 56.8168 43.0882C56.66 44.3359 57.0553 45.5706 58.0027 46.7922C58.7132 47.7294 59.6819 48.4328 60.7868 48.8138Z" fill="black"/>
</g>
<defs>
<clipPath id="clip0">
<rect width="170" height="62" fill="white"/>
</clipPath>
</defs>
</svg>
