<svg width="515" height="371" viewBox="0 0 515 371" fill="none" xmlns="http://www.w3.org/2000/svg">
<path d="M76.869 64.1708L73.2857 88.9126L92.9052 91.7541C97.802 92.4633 101.679 91.923 104.537 90.1331C107.432 88.3157 109.18 85.329 109.782 81.1732C110.379 77.0495 109.529 73.8346 107.231 71.5284C104.934 69.2222 100.983 67.6631 95.3771 66.8513L76.869 64.1708ZM81.1733 34.4515L78.0168 56.2456L94.9785 58.7022C99.972 59.4254 103.775 59.0552 106.388 57.5918C109.001 56.1283 110.586 53.4797 111.141 49.646C111.663 46.0378 110.923 43.2006 108.92 41.1343C106.917 39.068 103.579 37.6966 98.9081 37.0201L81.1733 34.4515ZM72.6843 24.9334L101.389 29.0906C108.766 30.1591 114.081 32.409 117.334 35.8403C120.619 39.2763 121.844 43.8777 121.008 49.6443C120.477 53.3169 119.152 56.332 117.034 58.6896C114.949 61.0518 112.131 62.6829 108.58 63.5829C112.725 64.9398 115.77 67.305 117.715 70.6786C119.693 74.0568 120.346 78.0655 119.674 82.7046C118.732 89.2122 115.824 94.0703 110.952 97.2787C106.112 100.492 99.9712 101.56 92.5293 100.482L62.3751 96.1145L72.6843 24.9334ZM138.212 34.4236L188.952 41.7723L187.671 50.6156L146.499 44.6527L143.419 65.9152L181.45 71.4232L180.247 79.7349L142.216 74.2269L138.758 98.099L180.752 104.181L179.464 113.072L127.902 105.605L138.212 34.4236ZM227.338 77.8717C234.715 78.9402 240.29 81.6716 244.061 86.0661C247.868 90.4331 249.322 95.7254 248.422 101.943C247.517 108.193 244.616 112.888 239.721 116.027C234.859 119.171 228.738 120.209 221.361 119.14L191.207 114.773L201.516 43.592L248.487 50.3947L247.206 59.238L209.997 53.849L206.945 74.9182L227.338 77.8717ZM205.673 83.0227L202.131 107.475L221.751 110.316C226.68 111.03 230.571 110.508 233.424 108.75C236.277 106.993 238.002 104.052 238.599 99.9284C239.192 95.837 238.321 92.652 235.987 90.3733C233.689 88.0671 229.754 86.5104 224.181 85.7032L205.673 83.0227ZM255.128 101.286L256.262 93.4577L280.182 96.9221L279.048 104.751L255.128 101.286Z" fill="#222222"/>
<path d="M19.0895 294.748L67.6305 265.277L104.957 326.756L96.568 331.85L63.4984 277.382L31.6943 296.692L64.7639 351.16L56.4164 356.228L19.0895 294.748ZM81.9465 256.585L126.856 229.318L164.183 290.798L155.794 295.892L122.724 241.424L94.593 258.503L117.805 296.735C121.437 302.718 123.164 307.82 122.985 312.041C122.789 316.235 120.674 319.556 116.639 322.006C115.972 322.411 115.234 322.764 114.426 323.064C113.635 323.392 112.793 323.637 111.901 323.798L107.314 316.243C107.592 316.074 107.907 315.902 108.258 315.727C108.619 315.508 109.078 315.229 109.635 314.891C111.722 313.624 112.828 312.153 112.953 310.477C113.061 308.774 112.161 306.35 110.252 303.206L81.9465 256.585ZM165.969 217.624L172.799 250.608L191.957 238.976L165.969 217.624ZM156.031 211.605L165.255 206.005L225.496 253.573L216.439 259.071L198.778 244.66L174.57 259.358L179.167 281.701L170.527 286.946L156.031 211.605ZM194.555 188.216L202.819 183.198L220.836 212.874L232.411 165.232L243.513 158.491L233.338 198.372L281.55 219.54L271.199 225.825L230.935 208.056L227.07 223.141L240.146 244.678L231.882 249.695L194.555 188.216ZM275.071 151.384L281.901 184.367L301.059 172.736L275.071 151.384ZM265.133 145.365L274.357 139.764L334.598 187.332L325.541 192.831L307.88 178.419L283.672 193.117L288.269 215.46L279.63 220.706L265.133 145.365ZM297.814 125.523L345.019 96.8626L349.555 104.334L330.147 116.117L362.938 170.126L354.549 175.219L321.758 121.211L302.35 132.994L297.814 125.523ZM380.781 120.106L393.603 141.225L410.549 130.937C414.806 128.352 417.476 125.474 418.559 122.303C419.643 119.132 419.103 115.766 416.941 112.204C414.795 108.67 412.097 106.767 408.847 106.494C405.607 106.176 401.58 107.478 396.766 110.401L380.781 120.106ZM408.627 58.2434L417.017 53.1499L454.344 114.63L445.954 119.723L408.627 58.2434ZM352.49 92.3266L360.921 87.2078L376.607 113.043L394.22 102.35C400.592 98.481 406.631 97.0425 412.336 98.0343C418.052 98.9814 422.54 102.14 425.801 107.51C429.095 112.936 429.852 118.417 428.073 123.953C426.276 129.462 422.206 134.142 415.861 137.994L389.817 153.806L352.49 92.3266Z" fill="#222222"/>
</svg>
