<svg width="221" height="472" viewBox="0 0 221 472" fill="none" xmlns="http://www.w3.org/2000/svg">
<path fill-rule="evenodd" clip-rule="evenodd" d="M62.4638 1.09215e-05L158.29 2.76763e-05L158.29 290.703C145.139 280.239 128.488 273.988 110.377 273.988C92.2655 273.988 75.6144 280.239 62.4637 290.703L62.4638 1.09215e-05ZM33.363 351.356L33.3615 351.356L33.3615 5.83312e-06L0.000438516 0L0.0003754 360.98C8.31023e-05 361.085 -6.31524e-05 361.189 -6.31707e-05 361.294C-7.37948e-05 422.057 49.2579 471.315 110.021 471.315C170.783 471.315 220.041 422.057 220.041 361.294L220.042 361.294L220.042 3.84734e-05L187.392 3.27647e-05L187.392 352.067L187.384 352.067C186.814 394.11 152.555 428.017 110.377 428.017C67.9609 428.017 33.5538 393.727 33.363 351.356Z" fill="#3D743F"/>
<circle cx="110.023" cy="351.358" r="40.4593" fill="#3D743F"/>
</svg>
