<svg width="387" height="404" viewBox="0 0 387 404" fill="none" xmlns="http://www.w3.org/2000/svg">
<path fill-rule="evenodd" clip-rule="evenodd" d="M130.381 404L51.0938 404L51.0938 149.44C61.9748 158.098 75.7522 163.27 90.7378 163.27C105.723 163.27 119.5 158.098 130.381 149.44L130.381 404ZM154.46 99.256L154.461 99.256L154.461 404L182.064 404L182.064 91.321C182.064 91.225 182.064 91.1289 182.064 91.0328C182.064 40.7572 141.308 0.000735985 91.0324 0.00074038C40.7568 0.000744775 0.000364973 40.7572 0.000369368 91.0328L-7.31368e-05 91.0329L-4.57764e-05 404L27.0144 404L27.0143 98.6677L27.0213 98.6677C27.4923 63.8805 55.8387 35.8255 90.7378 35.8255C125.833 35.8255 154.302 64.1974 154.46 99.256Z" fill="#3D743F"/>
<circle cx="91.0305" cy="99.2542" r="33.4763" transform="rotate(180 91.0305 99.2542)" fill="#3D743F"/>
<path fill-rule="evenodd" clip-rule="evenodd" d="M255.683 -2.27965e-05L334.971 -8.93346e-06L334.971 254.531C324.09 245.873 310.312 240.701 295.327 240.701C280.341 240.701 266.564 245.873 255.683 254.531L255.683 -2.27965e-05ZM231.605 304.715L231.604 304.715L231.604 -2.70067e-05L204.001 -3.18329e-05L204.001 312.549C204 312.679 204 312.808 204 312.938C204 363.214 244.756 403.97 295.032 403.97C345.308 403.97 386.064 363.214 386.064 312.938L386.065 312.938L386.065 1.42598e-10L359.05 -4.72328e-06L359.05 305.303L359.043 305.303C358.572 340.09 330.226 368.145 295.327 368.145C260.231 368.145 231.762 339.774 231.605 304.715Z" fill="#3D743F"/>
<circle cx="295.034" cy="304.717" r="33.4763" fill="#3D743F"/>
</svg>
