<svg width="350" height="424" viewBox="0 0 350 424" fill="none" xmlns="http://www.w3.org/2000/svg">
<path fill-rule="evenodd" clip-rule="evenodd" d="M278.212 0H328.347L0 397.494V336.801L278.212 0ZM71.9716 423.61H21.1022L349.92 25.5462V87.1282L71.9716 423.61ZM114.647 423.61H160.475L349.92 194.27V138.791L114.647 423.61ZM247.526 423.61H203.151L349.92 245.932V299.653L247.526 423.61ZM290.202 423.61H349.92V351.315L290.202 423.61ZM235.536 0H183.964L0 222.705V285.138L235.536 0ZM95.9199 0H141.289L0 171.043V116.12L95.9199 0ZM53.2444 0H0V64.4572L53.2444 0Z" fill="#3D743F"/>
</svg>
