<svg width="546" height="443" viewBox="0 0 546 443" fill="none" xmlns="http://www.w3.org/2000/svg">
<path d="M26.8694 34.8633L23.8199 58.7416L40.094 60.82C45.7447 61.5416 49.8016 61.1244 52.2646 59.5684C54.76 58.0166 56.2839 55.0772 56.8365 50.7504C57.3726 46.5527 56.6441 43.3913 54.6512 41.2663C52.6624 39.1089 49.0686 37.6983 43.87 37.0344L26.8694 34.8633ZM18.302 24.8595L41.9866 27.8842C43.4073 28.0657 44.9531 28.2959 46.6239 28.5749C47.1042 28.669 47.4088 28.7244 47.538 28.7409C54.6741 29.6522 59.8438 32.0845 63.0472 36.0378C66.287 39.9629 67.478 45.2836 66.6203 51.9998C66.1172 55.9392 64.8787 59.3416 62.9048 62.2071C60.9672 65.0444 58.4138 67.1796 55.2445 68.6125C53.3689 69.4231 51.2398 69.906 48.8572 70.0612C46.4787 70.184 42.674 69.9114 37.4431 69.2434L22.7189 67.363L18.8777 97.441L9.19076 96.2039L18.302 24.8595ZM103.356 46.108L88.147 76.1617L110.379 79.0008L103.356 46.108ZM99.3333 35.2078L110.037 36.5748L127.517 111.315L117.007 109.973L112.172 87.6966L84.0802 84.109L73.7543 104.449L63.7283 103.169L99.3333 35.2078ZM170.433 74.7579C177.827 75.7022 183.447 78.3396 187.291 82.6701C191.172 86.9724 192.714 92.2395 191.919 98.4715C191.119 104.736 188.298 109.478 183.456 112.7C178.647 115.925 172.545 117.065 165.151 116.121L134.927 112.261L144.039 40.917L191.117 46.9293L189.985 55.7929L152.69 51.0301L149.994 72.1476L170.433 74.7579ZM148.858 80.2723L145.728 104.78L165.392 107.292C170.333 107.922 174.214 107.335 177.037 105.53C179.86 103.725 181.536 100.755 182.064 96.6222C182.587 92.5214 181.663 89.3514 179.291 87.1123C176.955 84.845 172.994 83.3547 167.408 82.6413L148.858 80.2723ZM238.953 59.7328C231.526 58.7844 225.368 60.6233 220.478 65.2495C215.593 69.8433 212.566 76.7093 211.399 85.8473C210.236 94.953 211.44 102.359 215.01 108.066C218.58 113.772 224.079 117.1 231.506 118.048C238.9 118.993 245.026 117.15 249.883 112.519C254.741 107.889 257.751 101.021 258.914 91.9153C260.081 82.7772 258.893 75.3732 255.351 69.703C251.813 64.0005 246.347 60.6772 238.953 59.7328ZM240.029 51.3052C250.556 52.6495 258.381 57.029 263.505 64.4435C268.629 71.8581 270.441 81.4422 268.94 93.1957C267.439 104.949 263.277 113.77 256.454 119.659C249.631 125.548 240.956 127.82 230.429 126.476C219.871 125.128 212.013 120.744 206.856 113.325C201.7 105.907 199.872 96.3204 201.373 84.5669C202.874 72.8134 207.053 63.9943 213.908 58.1096C220.763 52.2249 229.47 49.9568 240.029 51.3052ZM278.978 58.1498L333.758 65.1456L332.65 73.8154L310.128 70.9391L302.124 133.614L292.389 132.37L300.393 69.6958L277.871 66.8196L278.978 58.1498ZM342.427 66.2528L352.114 67.4899L348.372 96.7929L385.376 101.519L389.118 72.2156L398.854 73.4588L389.743 144.803L380.007 143.56L384.275 110.14L347.271 105.414L343.003 138.834L333.316 137.597L342.427 66.2528ZM414.111 75.4073L423.313 76.5825L416.596 129.183C417.196 128.34 417.824 127.535 418.48 126.765C419.172 125.968 420.077 125.049 421.194 124.011L460.686 86.1301L461.286 81.4319L470.537 82.6134L461.426 153.958L452.175 152.776L458.979 99.4981C458.407 100.377 457.812 101.187 457.192 101.928C456.572 102.669 455.906 103.388 455.194 104.085L414.889 142.551L414.202 147.927L405 146.752L414.111 75.4073ZM485.794 84.5618L495.384 85.7865L490.986 120.224L529.725 90.172L542.608 91.8174L509.801 116.67L534.32 163.267L522.309 161.733L501.887 122.748L489.465 132.139L486.273 157.131L476.683 155.906L485.794 84.5618Z" fill="#222222"/>
<path d="M58.7193 368.589L70.3656 360.883L115.594 396.942C115.657 396.978 115.77 397.06 115.932 397.187C117.472 398.393 118.921 399.639 120.28 400.926C119.814 399.751 119.43 398.698 119.126 397.767C118.822 396.836 118.568 395.95 118.363 395.11L103.391 339.032L115.078 331.299L154.766 391.282L146.866 396.509L113.051 345.404C113.391 346.272 113.722 347.185 114.044 348.143C114.348 349.074 114.7 350.226 115.102 351.6L130.007 407.664L122.311 412.756L76.9053 376.873C75.879 376.03 74.9878 375.273 74.2318 374.602C73.4578 373.904 72.7424 373.206 72.0858 372.509L105.9 423.614L98.4073 428.572L58.7193 368.589ZM127.946 322.785L170.703 294.494L175.634 301.946L140.939 324.902L152.794 342.82L184.842 321.615L189.476 328.619L157.429 349.824L170.739 369.94L206.126 346.526L211.083 354.019L167.634 382.768L127.946 322.785ZM242.662 272.819L234.681 278.1C231.325 274.621 227.522 272.766 223.27 272.535C219.028 272.258 214.626 273.629 210.066 276.647C203.957 280.688 200.63 285.954 200.084 292.443C199.538 298.933 201.833 306.059 206.971 313.824C211.784 321.099 217.402 325.814 223.822 327.967C230.27 330.102 236.345 329.283 242.046 325.511C247.014 322.224 250.057 318.005 251.177 312.853C252.323 307.684 251.325 302.548 248.183 297.445L256.083 292.218C260.59 299.619 261.954 307.049 260.177 314.51C258.399 321.97 253.846 328.125 246.516 332.975C238.209 338.471 229.739 339.977 221.108 337.491C212.476 335.005 204.909 328.849 198.407 319.021C191.977 309.303 189.395 300.003 190.663 291.124C191.931 282.244 196.881 274.949 205.514 269.237C212.301 264.746 219.056 262.833 225.78 263.497C232.486 264.134 238.113 267.242 242.662 272.819ZM266.01 241.563C265.956 241.598 265.874 241.652 265.766 241.724C265.313 242.102 264.91 242.407 264.557 242.641C260.051 245.623 257.386 248.498 256.564 251.267C255.769 254.018 256.548 257.171 258.901 260.728C261.057 263.985 263.704 265.863 266.845 266.362C269.985 266.86 273.319 265.942 276.849 263.607L279.455 261.882L293.381 252.668L279.937 232.348L266.01 241.563ZM260.005 235.407L283.257 220.022L322.945 280.005L314.882 285.339L297.88 259.644L282.366 269.91C278.131 272.712 275.689 275.186 275.04 277.333C274.401 279.434 275.284 282.597 277.689 286.822L282.373 294.964C282.67 295.47 282.997 296.054 283.356 296.714C283.724 297.329 283.935 297.678 283.989 297.759C284.51 298.546 284.994 299.573 285.441 300.838C285.87 302.077 286.141 303.224 286.255 304.281L276.848 310.505L275.743 308.835C276.271 307.745 276.415 306.576 276.175 305.329C275.918 304.055 275.148 302.301 273.864 300.067L268.009 289.713C265.739 285.751 264.598 282.7 264.588 280.56C264.604 278.402 265.564 276.225 267.468 274.029C263.864 274.54 260.615 274.114 257.722 272.749C254.81 271.358 252.286 269.047 250.149 265.816C246.61 260.468 245.44 255.368 246.64 250.515C247.867 245.644 251.371 241.295 257.154 237.469C257.208 237.433 257.335 237.33 257.534 237.159C258.394 236.512 259.218 235.928 260.005 235.407ZM296.125 211.508L304.269 206.119L338.999 258.609L371.617 237.027L336.887 184.537L344.99 179.176L379.721 231.665L386.806 226.977L399.874 246.727L392.788 251.415L384.678 239.158L335.813 271.49L296.125 211.508ZM384.27 165.539L392.377 198.232L411.068 185.865L384.27 165.539ZM374.106 159.911L383.105 153.956L445.149 199.147L436.313 204.993L418.105 191.279L394.487 206.907L399.949 229.054L391.519 234.631L374.106 159.911Z" fill="#222222"/>
</svg>
